<?xml version="1.0" encoding="UTF-8"?>
<!-- Created with Inkscape (http://www.inkscape.org/) -->
<svg width="5.8295mm" height="5.7944mm" version="1.1" viewBox="0 0 5.8295 5.7944" xmlns="http://www.w3.org/2000/svg" xmlns:cc="http://creativecommons.org/ns#" xmlns:dc="http://purl.org/dc/elements/1.1/" xmlns:rdf="http://www.w3.org/1999/02/22-rdf-syntax-ns#">
 <metadata>
  <rdf:RDF>
   <cc:Work rdf:about="">
    <dc:format>image/svg+xml</dc:format>
    <dc:type rdf:resource="http://purl.org/dc/dcmitype/StillImage"/>
    <dc:title/>
   </cc:Work>
  </rdf:RDF>
 </metadata>
 <g transform="translate(-49.306 -91.162)">
  <g transform="matrix(.26458 0 0 .26458 52.765 101.06)">
   <g transform="translate(-26.647 .13071)">
    <g transform="translate(14.769 -42.801)">
     <path d="m0 0h24v24h-24z" fill="none"/>
    </g>
    <g transform="translate(12.618 -38.629)">
     <path d="m0 0h24v24h-24z" clip-rule="evenodd" fill="none"/>
     <path d="m22.7 19-9.1-9.1c0.9-2.3 0.4-5-1.5-6.9-2-2-5-2.4-7.4-1.3l4.3 4.3-3 3-4.4-4.3c-1.2 2.4-0.7 5.4 1.3 7.4 1.9 1.9 4.6 2.4 6.9 1.5l9.1 9.1c0.4 0.4 1 0.4 1.4 0l2.3-2.3c0.5-0.4 0.5-1.1 0.1-1.4z" fill="#fff"/>
    </g>
   </g>
  </g>
 </g>
</svg>
