<?xml version="1.0" encoding="UTF-8"?>
<!-- Created with Inkscape (http://www.inkscape.org/) -->
<svg width="6.35mm" height="4.2333mm" version="1.1" viewBox="0 0 6.35 4.2333" xmlns="http://www.w3.org/2000/svg" xmlns:cc="http://creativecommons.org/ns#" xmlns:dc="http://purl.org/dc/elements/1.1/" xmlns:rdf="http://www.w3.org/1999/02/22-rdf-syntax-ns#">
 <metadata>
  <rdf:RDF>
   <cc:Work rdf:about="">
    <dc:format>image/svg+xml</dc:format>
    <dc:type rdf:resource="http://purl.org/dc/dcmitype/StillImage"/>
    <dc:title/>
   </cc:Work>
  </rdf:RDF>
 </metadata>
 <g transform="translate(-150.28 -93.8)">
  <path d="m152.96 96.992c0.60669-0.13996 1.1716-0.26273 0.89799-0.7792-0.83238-1.5722-0.22066-2.4127 0.65829-2.4127 0.89641 0 1.4933 0.87286 0.65828 2.4127-0.28178 0.51964 0.30401 0.64214 0.898 0.7792 0.52546 0.12144 0.56038 0.37835 0.56038 0.82312l-7.9e-4 0.21828h-4.2318c0-0.58102-0.0466-0.90144 0.5596-1.0414zm-2.6765 1.0414h1.5878c-7e-3 -1.7309 0.79242-0.97816 0.79242-2.3551 0-0.53155-0.34686-0.81994-0.79322-0.81994-0.65934 0-1.1181 0.6305-0.49371 1.8095 0.20505 0.38735-0.21828 0.47942-0.67336 0.58446-0.39423 0.09102-0.42043 0.28363-0.42043 0.61727z" fill="#fff" stroke-width=".26458"/>
 </g>
</svg>
