<?xml version="1.0" encoding="UTF-8"?>
<svg width="6.35mm" height="6.35mm" version="1.1" viewBox="0 0 6.35 6.35" xmlns="http://www.w3.org/2000/svg" xmlns:cc="http://creativecommons.org/ns#" xmlns:dc="http://purl.org/dc/elements/1.1/" xmlns:rdf="http://www.w3.org/1999/02/22-rdf-syntax-ns#">
 <metadata>
  <rdf:RDF>
   <cc:Work rdf:about="">
    <dc:format>image/svg+xml</dc:format>
    <dc:type rdf:resource="http://purl.org/dc/dcmitype/StillImage"/>
    <dc:title/>
   </cc:Work>
  </rdf:RDF>
 </metadata>
 <path d="m1.9316 1.6752h-0.53053v-0.17684h0.53053zm1.4147 1.0611c-0.2925 0-0.53053 0.23803-0.53053 0.53053 0 0.2925 0.23803 0.53053 0.53053 0.53053s0.53053-0.23803 0.53053-0.53053c0-0.2925-0.23803-0.53053-0.53053-0.53053zm1.9453-0.88421v3.0063h-4.2442v-3.0063h1.0487c0.11831 0 0.22866-0.059065 0.29427-0.15757l0.24864-0.37296h1.4147l0.24864 0.37296c0.065608 0.098501 0.17596 0.15757 0.29426 0.15757zm-3.36 0.70737c0-0.097617-0.079048-0.17684-0.17684-0.17684-0.097794 0-0.17684 0.079225-0.17684 0.17684 0 0.097617 0.079048 0.17684 0.17684 0.17684 0.097794 0 0.17684-0.079225 0.17684-0.17684zm2.2989 0.70737c0-0.48826-0.39595-0.88421-0.88421-0.88421-0.48826 0-0.88421 0.39595-0.88421 0.88421s0.39595 0.88421 0.88421 0.88421c0.48826 0 0.88421-0.39595 0.88421-0.88421z" fill="#fff" stroke-width=".17684"/>
</svg>
