<?xml version="1.0" encoding="UTF-8"?>
<!-- Created with Inkscape (http://www.inkscape.org/) -->
<svg width="6.35mm" height="6.35mm" version="1.1" viewBox="0 0 6.35 6.35" xmlns="http://www.w3.org/2000/svg" xmlns:cc="http://creativecommons.org/ns#" xmlns:dc="http://purl.org/dc/elements/1.1/" xmlns:rdf="http://www.w3.org/1999/02/22-rdf-syntax-ns#">
 <metadata>
  <rdf:RDF>
   <cc:Work rdf:about="">
    <dc:format>image/svg+xml</dc:format>
    <dc:type rdf:resource="http://purl.org/dc/dcmitype/StillImage"/>
    <dc:title/>
   </cc:Work>
  </rdf:RDF>
 </metadata>
 <g transform="translate(-45.715 -101.09)">
  <g transform="matrix(.26458 0 0 .26458 52.765 101.06)">
   <g transform="translate(-26.647 .13071)">
    <path d="m12 10.9c-0.61 0-1.1 0.49-1.1 1.1s0.49 1.1 1.1 1.1 1.1-0.49 1.1-1.1-0.49-1.1-1.1-1.1zm0-8.9c-5.52 0-10 4.48-10 10s4.48 10 10 10 10-4.48 10-10-4.48-10-10-10zm2.19 12.19-8.19 3.81 3.81-8.19 8.19-3.81z" fill="#fff"/>
    <path d="m0 0h24v24h-24z" fill="none"/>
   </g>
  </g>
 </g>
</svg>
