<?xml version="1.0" encoding="UTF-8"?>
<svg width="24" height="24" version="1.1" viewBox="0 0 24 24" xmlns="http://www.w3.org/2000/svg" xmlns:cc="http://creativecommons.org/ns#" xmlns:dc="http://purl.org/dc/elements/1.1/" xmlns:rdf="http://www.w3.org/1999/02/22-rdf-syntax-ns#">
 <metadata>
  <rdf:RDF>
   <cc:Work rdf:about="">
    <dc:format>image/svg+xml</dc:format>
    <dc:type rdf:resource="http://purl.org/dc/dcmitype/StillImage"/>
    <dc:title/>
   </cc:Work>
  </rdf:RDF>
 </metadata>
 <g transform="matrix(.3212 0 0 .3212 2.7493 2.1089)" fill="#fff">
  <path d="m29.983 8.142c-4.71 0-8.543 3.833-8.543 8.543s3.833 8.543 8.543 8.543 8.543-3.833 8.543-8.543c0-4.712-3.833-8.543-8.543-8.543z"/>
  <path d="m29.983 0.96c-9.019 0-16.355 7.338-16.355 16.357 0 2.869 0.752 5.691 2.178 8.161 2.416 4.188 11.113 14.155 14.489 17.97 3.223-3.841 11.441-13.77 13.86-17.955 1.43-2.473 2.186-5.299 2.186-8.174-3e-3 -9.021-7.339-16.359-16.358-16.359zm0 27.809c-6.664 0-12.084-5.422-12.084-12.084s5.422-12.084 12.084-12.084c6.664 0 12.084 5.422 12.084 12.084s-5.422 12.084-12.084 12.084z"/>
  <path d="m24.82 43.466c-1.306-1.802-2.71-3.782-3.931-5.604h-6.489l-1.958 5.604z"/>
  <polygon points="12.069 59.04 9.686 55.474 6.709 51.016 4.471 47.666 0.134 59.04"/>
  <path d="m8.208 37.861-2.59 6.794 4.249 6.361h36.767l-2.604-13.155h-4.858c-3.313 5.149-7.946 11.55-7.995 11.617l-0.919 1.268-0.948-1.238c-0.022-0.029-0.983-1.285-2.345-3.121h-18.229l2.98-8.525z"/>
  <polygon points="11.818 53.937 15.226 59.04 48.221 59.04 47.212 53.937"/>
  <polygon points="46.578 37.861 49.183 51.016 56.806 51.016 51.792 37.861"/>
  <polygon points="49.761 53.937 50.771 59.04 59.866 59.04 57.92 53.937"/>
 </g>
</svg>
