<?xml version="1.0" encoding="UTF-8" standalone="no"?>
<svg
   xmlns:dc="http://purl.org/dc/elements/1.1/"
   xmlns:cc="http://creativecommons.org/ns#"
   xmlns:rdf="http://www.w3.org/1999/02/22-rdf-syntax-ns#"
   xmlns:svg="http://www.w3.org/2000/svg"
   xmlns="http://www.w3.org/2000/svg"
   xmlns:sodipodi="http://sodipodi.sourceforge.net/DTD/sodipodi-0.dtd"
   xmlns:inkscape="http://www.inkscape.org/namespaces/inkscape"
   width="495.47815mm"
   height="259.13116mm"
   viewBox="0 0 495.47815 259.13117"
   version="1.1"
   id="svg8"
   inkscape:version="1.0.1 (3bc2e81, 2020-09-07)"
   sodipodi:docname="pedralta.svg">
  <defs
     id="defs2">
    <rect
       x="324.62088"
       y="155.46342"
       width="20.211802"
       height="22.166895"
       id="rect1392" />
    <rect
       x="-443.80728"
       y="-21.582048"
       width="810.48761"
       height="377.11807"
       id="rect1163" />
    <rect
       x="220.36771"
       y="311.02618"
       width="24.779779"
       height="26.495234"
       id="rect737" />
    <rect
       x="220.36771"
       y="311.02618"
       width="24.779779"
       height="26.495234"
       id="rect745" />
    <rect
       x="220.36771"
       y="311.02618"
       width="24.779779"
       height="26.495234"
       id="rect751" />
    <rect
       x="220.36771"
       y="311.02618"
       width="24.779779"
       height="26.495234"
       id="rect757" />
    <rect
       x="220.36771"
       y="311.02618"
       width="24.779779"
       height="26.495234"
       id="rect763" />
    <rect
       x="220.36771"
       y="311.02618"
       width="24.779779"
       height="26.495234"
       id="rect769" />
    <rect
       x="220.36771"
       y="311.02618"
       width="24.779779"
       height="26.495234"
       id="rect775" />
    <rect
       x="220.36771"
       y="311.02618"
       width="24.779779"
       height="26.495234"
       id="rect781" />
    <rect
       x="220.36771"
       y="311.02618"
       width="24.779779"
       height="26.495234"
       id="rect787" />
    <rect
       x="220.36771"
       y="311.02618"
       width="24.779779"
       height="26.495234"
       id="rect793" />
    <rect
       x="220.36771"
       y="311.02618"
       width="24.779779"
       height="26.495234"
       id="rect799" />
    <rect
       x="220.36771"
       y="311.02618"
       width="24.779779"
       height="26.495234"
       id="rect805" />
    <rect
       x="220.36771"
       y="311.02618"
       width="24.779779"
       height="26.495234"
       id="rect811" />
    <rect
       x="220.36771"
       y="311.02618"
       width="24.779779"
       height="26.495234"
       id="rect817" />
    <rect
       x="220.36771"
       y="311.02618"
       width="24.779779"
       height="26.495234"
       id="rect823" />
    <rect
       x="220.36771"
       y="311.02618"
       width="24.779779"
       height="26.495234"
       id="rect829" />
    <rect
       x="220.36771"
       y="311.02618"
       width="24.779779"
       height="26.495234"
       id="rect835" />
    <rect
       x="220.36771"
       y="311.02618"
       width="24.779779"
       height="26.495234"
       id="rect737-9" />
    <rect
       x="220.36771"
       y="311.02618"
       width="24.779779"
       height="26.495234"
       id="rect745-0" />
    <rect
       x="220.36771"
       y="311.02618"
       width="24.779779"
       height="26.495234"
       id="rect751-8" />
    <rect
       x="220.36771"
       y="311.02618"
       width="24.779779"
       height="26.495234"
       id="rect757-8" />
    <rect
       x="220.36771"
       y="311.02618"
       width="24.779779"
       height="26.495234"
       id="rect763-5" />
    <rect
       x="220.36771"
       y="311.02618"
       width="24.779779"
       height="26.495234"
       id="rect769-0" />
    <rect
       x="220.36771"
       y="311.02618"
       width="24.779779"
       height="26.495234"
       id="rect775-9" />
    <rect
       x="220.36771"
       y="311.02618"
       width="24.779779"
       height="26.495234"
       id="rect781-6" />
    <rect
       x="220.36771"
       y="311.02618"
       width="24.779779"
       height="26.495234"
       id="rect787-3" />
    <rect
       x="220.36771"
       y="311.02618"
       width="24.779779"
       height="26.495234"
       id="rect793-8" />
    <rect
       x="220.36771"
       y="311.02618"
       width="24.779779"
       height="26.495234"
       id="rect799-5" />
    <rect
       x="220.36771"
       y="311.02618"
       width="24.779779"
       height="26.495234"
       id="rect805-6" />
    <rect
       x="220.36771"
       y="311.02618"
       width="24.779779"
       height="26.495234"
       id="rect811-1" />
    <rect
       x="220.36771"
       y="311.02618"
       width="24.779779"
       height="26.495234"
       id="rect817-1" />
    <rect
       x="220.36771"
       y="311.02618"
       width="24.779779"
       height="26.495234"
       id="rect823-5" />
    <rect
       x="220.36771"
       y="311.02618"
       width="24.779779"
       height="26.495234"
       id="rect829-9" />
    <rect
       x="220.36771"
       y="311.02618"
       width="24.779779"
       height="26.495234"
       id="rect835-8" />
    <rect
       x="220.36771"
       y="311.02618"
       width="24.779779"
       height="26.495234"
       id="rect737-1" />
    <rect
       x="220.36771"
       y="311.02618"
       width="24.779779"
       height="26.495234"
       id="rect745-8" />
    <rect
       x="220.36771"
       y="311.02618"
       width="24.779779"
       height="26.495234"
       id="rect751-9" />
    <rect
       x="220.36771"
       y="311.02618"
       width="24.779779"
       height="26.495234"
       id="rect757-6" />
    <rect
       x="220.36771"
       y="311.02618"
       width="24.779779"
       height="26.495234"
       id="rect763-4" />
    <rect
       x="220.36771"
       y="311.02618"
       width="24.779779"
       height="26.495234"
       id="rect769-3" />
    <rect
       x="220.36771"
       y="311.02618"
       width="24.779779"
       height="26.495234"
       id="rect775-3" />
    <rect
       x="220.36771"
       y="311.02618"
       width="24.779779"
       height="26.495234"
       id="rect781-3" />
    <rect
       x="220.36771"
       y="311.02618"
       width="24.779779"
       height="26.495234"
       id="rect787-8" />
    <rect
       x="220.36771"
       y="311.02618"
       width="24.779779"
       height="26.495234"
       id="rect793-6" />
    <rect
       x="220.36771"
       y="311.02618"
       width="24.779779"
       height="26.495234"
       id="rect799-0" />
    <rect
       x="220.36771"
       y="311.02618"
       width="24.779779"
       height="26.495234"
       id="rect805-4" />
    <rect
       x="220.36771"
       y="311.02618"
       width="24.779779"
       height="26.495234"
       id="rect811-8" />
    <rect
       x="220.36771"
       y="311.02618"
       width="24.779779"
       height="26.495234"
       id="rect817-8" />
    <rect
       x="220.36771"
       y="311.02618"
       width="24.779779"
       height="26.495234"
       id="rect823-8" />
    <rect
       x="220.36771"
       y="311.02618"
       width="24.779779"
       height="26.495234"
       id="rect829-97" />
    <rect
       x="220.36771"
       y="311.02618"
       width="24.779779"
       height="26.495234"
       id="rect835-7" />
    <rect
       x="324.62088"
       y="155.46342"
       width="20.211802"
       height="22.166895"
       id="rect1392-9" />
    <rect
       x="324.62088"
       y="155.46342"
       width="20.211802"
       height="22.166895"
       id="rect1422" />
    <rect
       x="324.62088"
       y="155.46342"
       width="20.211802"
       height="22.166895"
       id="rect1392-7" />
    <rect
       x="324.62088"
       y="155.46342"
       width="20.211802"
       height="22.166895"
       id="rect1454" />
    <rect
       x="324.62088"
       y="155.46342"
       width="20.211802"
       height="22.166895"
       id="rect1392-7-7" />
    <rect
       x="324.62088"
       y="155.46342"
       width="20.211802"
       height="22.166895"
       id="rect1486" />
  </defs>
  <sodipodi:namedview
     id="base"
     pagecolor="#ffffff"
     bordercolor="#666666"
     borderopacity="1.0"
     inkscape:pageopacity="0.0"
     inkscape:pageshadow="2"
     inkscape:zoom="0.35"
     inkscape:cx="627.01668"
     inkscape:cy="460.11"
     inkscape:document-units="mm"
     inkscape:current-layer="g995"
     inkscape:document-rotation="0"
     showgrid="false"
     inkscape:window-width="1848"
     inkscape:window-height="1016"
     inkscape:window-x="72"
     inkscape:window-y="27"
     inkscape:window-maximized="1" />
  <metadata
     id="metadata5">
    <rdf:RDF>
      <cc:Work
         rdf:about="">
        <dc:format>image/svg+xml</dc:format>
        <dc:type
           rdf:resource="http://purl.org/dc/dcmitype/StillImage" />
        <dc:title></dc:title>
      </cc:Work>
    </rdf:RDF>
  </metadata>
  <g
     inkscape:label="Layer 1"
     inkscape:groupmode="layer"
     id="layer1"
     transform="translate(134.12111,0.41895411)">
    <g
       id="g995"
       transform="translate(-44.87352,-15.627475)"
       style="opacity:1">
      <g
         id="layer2"
         inkscape:label="Layer 2" />
      <ellipse
         style="fill:#d72506;fill-opacity:1;stroke-width:1.13977"
         id="path917-3"
         cx="395.30215"
         cy="261.29172"
         rx="10.928393"
         ry="10.916183" />
      <g
         id="layer2-0"
         inkscape:label="Layer 2"
         transform="translate(-63.50701,-10.597381)" />
      <text
         xml:space="preserve"
         id="text1161"
         style="font-style:normal;font-weight:normal;font-size:10.5833px;line-height:1.25;font-family:sans-serif;white-space:pre;shape-inside:url(#rect1163);fill:#000000;fill-opacity:1;stroke:none;" />
      <path
         id="path2452"
         style="fill:#000000;stroke-width:0.053075"
         inkscape:connector-curvature="0"
         d="m 284.38365,120.42893 c -0.0138,-0.0773 -7.5077,5.05624 -16.64978,11.40949 -16.45844,11.43787 -16.61834,11.55881 -16.48828,11.94709 0.0721,0.21507 0.19252,0.40472 0.26722,0.42025 0.0747,0.0156 5.23192,-1.50715 11.45918,-3.37976 6.22729,-1.87259 11.38398,-3.40662 11.45898,-3.40806 0.0744,-10e-4 1.36307,5.22036 2.86549,11.60048 1.50245,6.38008 2.78675,11.64875 2.85692,11.71195 0.0704,0.063 0.28764,0.093 0.48198,0.0675 0.3341,-0.0436 0.4502,-1.17783 2.06278,-20.13651 0.94007,-11.05128 1.69912,-20.15525 1.6855,-20.23241 z m -1.25801,1.89021 c 0.10496,-0.0332 -1.58339,3.00261 -3.8245,6.8843 l -4.00902,6.94383 -10.55693,3.17996 c -9.24278,2.78159 -10.66619,3.21001 -10.74319,3.20539 0.0162,-0.0121 0.0881,-0.0453 0.12246,-0.0678 0.0795,-0.0517 6.598,-4.59108 14.48386,-10.08782 7.88612,-5.49723 14.42443,-10.0241 14.52728,-10.05786 z m -21.62296,26.86148 -6.49665,11.25253 1.4759,0.85213 5.43541,-9.41444 -0.44598,12.29508 2.05001,1.18358 6.49667,-11.25255 -1.47592,-0.8521 -5.43488,9.41349 0.44498,-12.29441 z" />
      <text
         xml:space="preserve"
         id="text1390"
         style="font-style:normal;font-weight:normal;font-size:10.5833px;line-height:1.25;font-family:sans-serif;white-space:pre;shape-inside:url(#rect1392);fill:#ffffff;fill-opacity:1;stroke:none;"
         transform="translate(65.895395,95.466124)"><tspan
           x="324.62109"
           y="171.25306"><tspan
             style="font-style:normal;font-variant:normal;font-weight:normal;font-stretch:normal;font-size:16.9333px;font-family:Ubuntu;-inkscape-font-specification:'Ubuntu, Normal';font-variant-ligatures:normal;font-variant-caps:normal;font-variant-numeric:normal;font-variant-east-asian:normal;fill:#ffffff">1</tspan></tspan></text>
      <path
         style="fill:#000000;stroke-width:0.544825"
         d="m 55.607904,250.21873 c 0,-0.11311 0.37338,-0.51558 0.82969,-0.89429 0.69377,-0.57577 0.77349,-0.54207 0.48654,0.20571 -0.29304,0.76368 -1.31623,1.29897 -1.31623,0.68858 z m 4.37591,-1.0284 c -0.01,-0.22927 0.76697,-1.80654 1.72553,-3.50503 1.294,-2.29282 1.50895,-2.99841 0.83469,-2.73967 -1.47902,0.56755 -1.58965,-0.50157 -0.14965,-1.44514 1.20393,-0.78884 2.41459,-0.45881 1.53684,0.41894 -0.2003,0.20031 -0.40895,0.66354 -0.46366,1.02944 -0.27609,1.84614 -3.43154,7.49929 -3.48383,6.24146 z m -5.15874,-2.28328 c 0.48222,-0.73597 0.74225,-1.55575 0.57784,-1.82177 -0.16432,-0.26601 0.54998,-0.74418 1.58752,-1.0626 2.0988,-0.64415 2.66121,0.14116 0.649,0.90612 -0.68059,0.25876 -1.5801,1.11079 -1.99895,1.8934 -0.41885,0.78262 -0.97092,1.42294 -1.22685,1.42294 -0.25592,0 -0.0708,-0.60215 0.41144,-1.33809 z m 2.9107,0.34454 c 0.33115,-0.61879 0.87043,-1.29089 1.19836,-1.49357 0.42721,-0.26403 0.42555,-0.0495 -0.006,0.75654 -0.33116,0.61879 -0.87041,1.29089 -1.19835,1.49357 -0.42721,0.26403 -0.42555,0.0495 0.006,-0.75654 z m 6.58932,-0.31891 c 0,-0.10371 0.36774,-0.4938 0.81724,-0.86684 0.47105,-0.39093 0.81722,-0.44389 0.81722,-0.12497 0,0.30428 -0.36774,0.69435 -0.81722,0.86683 -0.4495,0.17242 -0.81724,0.22873 -0.81724,0.12498 z m 3.81377,-0.11462 c 0,-0.18559 0.87461,-1.7771 1.94356,-3.53681 1.06897,-1.7597 2.01492,-3.8686 2.10212,-4.68641 0.11538,-1.08291 0.623672,-1.67678 1.870186,-2.18544 1.180098,-0.48153 1.711676,-0.51289 1.711676,-0.10107 0,0.32858 -0.42905,0.70973 -0.953461,0.847 -0.524382,0.13721 -2.132534,2.44346 -3.573631,5.12483 -2.38799,4.44315 -3.10045,5.48591 -3.10045,4.53786 z m -16.889563,-0.49801 c 0,-0.15979 0.66954,-1.5695 1.487873,-3.13272 1.45707,-2.78341 1.49189,-2.80857 1.68301,-1.21599 0.1423,1.18554 -0.11331,1.83102 -0.94303,2.38195 -0.626,0.41565 -1.138193,1.09359 -1.138193,1.50651 0,0.41294 -0.24518,0.75079 -0.54483,0.75079 -0.29965,0 -0.54483,-0.13081 -0.54483,-0.29054 z m 14.710253,-1.60317 c 0,-0.14267 0.48943,-1.06199 1.08762,-2.0431 1.27976,-2.099 1.45857,-1.62196 0.26046,0.69492 -0.74744,1.44538 -1.34808,2.04607 -1.34808,1.34818 z m 7.082712,0.0484 c 0,-0.11594 1.139668,-2.38383 2.53257,-5.03962 2.663727,-5.07879 4.111403,-6.7192 5.912209,-6.69936 0.821663,0.01 0.599759,0.30406 -0.902276,1.19944 -1.535436,0.91532 -2.534276,2.27549 -4.358594,5.9352 -1.301672,2.61128 -2.550542,4.76296 -2.775276,4.78151 -0.224733,0.0188 -0.408633,-0.0611 -0.408633,-0.17711 z m -22.337795,-2.8395 c 0,-2.07062 3.886353,-6.32686 4.649513,-5.09203 0.49815,0.80604 -0.76956,2.14057 -1.69576,1.78515 -0.52013,-0.19959 -1.05438,0.3563 -1.601953,1.66685 -0.73936,1.76955 -1.3518,2.51258 -1.3518,1.64005 z m 28.325658,-1.71679 c 0.608622,-1.1237 1.618207,-2.90119 2.24351,-3.94998 l 1.136937,-1.90687 -0.368007,1.63445 c -0.202394,0.89898 -0.665929,2.00224 -1.030081,2.45172 -0.364132,0.44948 -0.999401,1.49146 -1.411682,2.31551 -0.412262,0.82404 -0.958312,1.49827 -1.21341,1.49827 -0.255117,0 0.03411,-0.91939 0.642733,-2.0431 z m -34.860758,1.08966 c 0.004,-0.56956 2.6834,-4.86664 2.70433,-4.3369 0.0232,0.58722 -2.11992,4.74551 -2.44576,4.74551 -0.14381,0 -0.26009,-0.18389 -0.25857,-0.40861 z m -2.99931,-0.68105 c 0.18521,-0.29964 0.44484,-0.54482 0.57698,-0.54482 0.13213,0 0.24026,0.24518 0.24026,0.54482 0,0.29965 -0.25966,0.54483 -0.57698,0.54483 -0.31734,0 -0.42545,-0.24518 -0.24026,-0.54483 z m 6.81864,-0.20809 c -0.01,-0.56726 2.15002,-4.1505 2.50181,-4.1505 0.13307,0 -0.12311,0.67423 -0.56934,1.49828 -1.1829,2.18455 -1.92295,3.20022 -1.93247,2.65222 z m 34.860419,-0.1979 c 0,-0.25867 0.73131,-1.62349 1.625138,-3.03291 2.055627,-3.24139 2.690187,-5.43654 1.432001,-4.95373 -0.482809,0.18521 -0.877857,0.0917 -0.877857,-0.20798 0,-0.29965 0.387812,-0.69363 0.861797,-0.87551 1.212995,-0.46547 3.337455,-0.39709 2.67956,0.0862 -0.299648,0.22016 -1.490905,2.30238 -2.647224,4.62717 -1.942975,3.90637 -3.073415,5.50882 -3.073415,4.35671 z m -16.344736,-0.62537 c 0,-0.56222 1.32682,-1.14793 2.60039,-1.14793 0.72379,0 0.69225,0.13967 -0.18068,0.79991 -1.19329,0.90256 -2.41963,1.07897 -2.41963,0.34802 z m -33.753733,-0.45372 c -0.0132,-0.36734 0.46406,-1.4706 1.06225,-2.45172 1.30376,-2.13837 1.35258,-2.60108 0.27445,-2.60108 -0.44948,0 -0.81724,-0.36163 -0.81724,-0.80361 0,-0.61257 0.42096,-0.72349 1.77068,-0.46657 2.2721,0.4325 2.52606,0.68417 1.35287,1.34071 -0.52444,0.29349 -1.55296,1.68485 -2.28557,3.09188 -0.73263,1.40704 -1.34349,2.2577 -1.35744,1.89039 z m 6.94279,-1.43964 c 1.48332,-2.51404 1.50602,-3.06833 0.12573,-3.06833 -0.71955,0 -1.47361,0.77076 -2.2653,2.3155 -0.69843,1.36275 -1.29075,2.00934 -1.43955,1.57146 -0.13909,-0.40922 -0.0205,-0.89956 0.26326,-1.08964 0.28381,-0.1901 0.9795,-1.14242 1.54591,-2.1163 0.74709,-1.28446 1.42151,-1.77068 2.45609,-1.77068 0.78442,0 1.56394,0.13778 1.73227,0.30605 0.37103,0.37106 -2.14176,4.97777 -3.00685,5.51242 -0.33863,0.20928 -0.0737,-0.53792 0.58853,-1.66048 z m 2.29386,1.59381 c 0,-0.53702 2.33071,-4.1475 2.54139,-3.93683 0.12479,0.12479 -0.29753,1.116 -0.9386,2.20255 -1.05849,1.79402 -1.60279,2.38297 -1.60279,1.73428 z m 57.751362,-0.2714 c 0,-0.28197 0.24237,-0.66246 0.538587,-0.84553 0.30883,-0.19087 0.40016,0.0279 0.21412,0.51266 -0.3622,0.94388 -0.752707,1.11657 -0.752707,0.33287 z m -76.275382,-1.17315 c 0,-0.4512 0.24019,-1.06055 0.53375,-1.35414 0.29358,-0.29357 0.99379,-1.47954 1.55607,-2.6355 0.56226,-1.15596 1.13891,-1.8842 1.28141,-1.6183 0.14249,0.26591 -0.55771,1.82105 -1.55606,3.45589 -0.99835,1.63484 -1.81517,2.60325 -1.81517,2.15205 z m 4.0089,-1.84493 c 0.87545,-1.58054 1.26223,-2.79376 0.92635,-2.90571 -1.20703,-0.40237 -0.50657,-1.19107 1.0578,-1.19107 0.89897,0 1.63449,0.0967 1.63449,0.21478 0,0.11821 -0.73552,1.00216 -1.63449,1.96451 -0.89894,0.96234 -1.63446,2.06152 -1.63446,2.44261 0,0.38111 -0.41687,1.0294 -0.92635,1.44065 -0.61965,0.50017 -0.4287,-0.15077 0.57666,-1.96577 z m 59.814627,2.16869 c 0.844644,-2.01591 1.802955,-3.54135 2.22474,-3.54135 0.271965,0 -0.0557,0.7968 -0.728245,1.77067 -1.430768,2.07197 -1.811473,2.5224 -1.496495,1.77068 z m -56.509027,-1.36206 c 0.17185,-0.44948 0.46367,-1.24628 0.64864,-1.77068 0.18501,-0.52439 0.55288,-0.95344 0.81757,-0.95344 0.76136,0 0.54671,0.70801 -0.66073,2.17929 -0.61477,0.74915 -0.97724,0.99432 -0.80548,0.54483 z m 61.424003,-1.67009 c 0.770942,-1.32886 1.819527,-3.23567 2.330186,-4.23741 0.510649,-1.00172 1.044445,-1.70529 1.186229,-1.5635 0.336509,0.33649 -3.521679,7.35392 -4.311559,7.84209 -0.33362,0.20618 0.02425,-0.71234 0.795144,-2.04118 z m 8.626526,1.95568 c 0,-0.14267 0.48943,-1.06199 1.0876,-2.0431 1.27978,-2.09901 1.45857,-1.62196 0.26046,0.69491 -0.74743,1.44538 -1.34806,2.04607 -1.34806,1.34819 z M 46.890701,235.7142 c 0,-0.29967 -0.35327,-0.54483 -0.78507,-0.54483 -0.4318,0 -0.93661,-0.24518 -1.1218,-0.54482 -0.19645,-0.31787 0.35756,-0.54483 1.3299,-0.54483 1.30342,0 1.66662,0.23748 1.66662,1.08965 0,0.5993 -0.24516,1.08964 -0.54482,1.08964 -0.29965,0 -0.54483,-0.24516 -0.54483,-0.54481 z m 4.75582,0.10258 c -2.13266,-0.17617 -2.33027,-1.19863 -0.22885,-1.18395 1.186323,0.008 3.030643,0.87083 2.539973,1.18788 -0.14116,0.0913 -1.18114,0.0894 -2.311123,-0.004 z M 9.8426606,233.53484 c 0.6115004,-1.19862 1.2343904,-2.17929 1.3842204,-2.17929 0.14982,0 -0.2279,0.98067 -0.8394,2.17929 -0.6114704,1.19861 -1.2343804,2.1793 -1.3841904,2.1793 -0.14983,0 0.22789,-0.98069 0.83937,-2.1793 z m 89.3511744,2.00922 c 0,-0.0936 0.490348,-1.18498 1.089645,-2.42538 0.59932,-1.24044 1.08965,-2.90052 1.08965,-3.68911 0,-2.07581 1.32264,-1.38897 1.53697,0.79815 0.11029,1.12576 -0.0329,1.65639 -0.38772,1.43706 -0.30945,-0.19123 -1.06737,0.64163 -1.68425,1.85082 -0.947047,1.85638 -1.644295,2.71652 -1.644295,2.02846 z M 0.03583063,234.88865 c 0,-0.54329 3.40349997,-6.30427 3.60527997,-6.10249 0.23243,0.23241 -3.01849997,6.38317 -3.37377997,6.38317 -0.12725,0 -0.2315,-0.1263 -0.2315,-0.28068 z m 3.87580997,-1.89253 c 0.67178,-1.19526 1.32835,-2.06627 1.45908,-1.93555 0.26326,0.26327 -1.99947,4.10876 -2.41764,4.10876 -0.14456,0 0.28679,-0.97794 0.95856,-2.17321 z m 2.11727,1.66053 c 0,-0.28196 0.24235,-0.66246 0.53858,-0.84554 0.30883,-0.19086 0.40017,0.0279 0.21411,0.51266 -0.36219,0.94388 -0.75269,1.11657 -0.75269,0.33288 z m 6.6488404,-0.55221 c 0.36577,-0.58567 0.74137,-0.98851 0.83467,-0.89519 0.32297,0.32294 -0.51941,1.96008 -1.00853,1.96008 -0.27013,0 -0.1919,-0.4792 0.17392,-1.06489 z m 84.346093,-1.38684 c 0.594199,-1.04877 1.556548,-2.74726 2.138592,-3.77441 l 1.058234,-1.86753 -2.011696,0.26266 -2.011673,0.26266 1.460265,-0.84432 c 0.803134,-0.46439 1.845115,-0.69663 2.315497,-0.51612 0.931607,0.35748 1.195607,2.3909 0.310417,2.3909 -0.299647,0 -0.544817,0.23001 -0.544817,0.51115 0,0.74036 -2.923089,5.44431 -3.395851,5.46468 -0.219617,0.01 0.08675,-0.84087 0.681032,-1.88967 z m 8.716226,1.25802 c 0.004,-0.39225 0.24601,-1.08094 0.53648,-1.53042 0.42936,-0.6644 0.5297,-0.594 0.53648,0.37645 0.004,0.65654 -0.23682,1.34525 -0.53648,1.53044 -0.29966,0.18521 -0.54108,0.0151 -0.53648,-0.37647 z M -2.3833894,233.58738 c -0.23533,-0.38078 -0.15904,-0.9611 0.1694,-1.28959 0.80384,-0.80384 1.10927,-0.36144 0.64099,0.92844 -0.2825,0.77821 -0.49425,0.87258 -0.81033,0.36115 z m 92.5797844,-0.86981 c 0.446066,-0.89895 0.696116,-2.00223 0.555673,-2.45171 -0.241,-0.77131 2.322713,-2.48689 2.881431,-1.92817 0.221254,0.22127 -0.252899,0.91473 -3.18105,4.65229 l -1.067099,1.36207 z M 8.0422406,231.08993 c 0.49834,-1.04502 1.00279,-1.80331 1.12101,-1.68508 0.24923,0.24922 -1.40466,3.58513 -1.77747,3.58513 -0.13721,0 0.15811,-0.85502 0.65646,-1.90005 z m 13.9227804,0.97075 c -2.06256,-0.39729 -1.36179,-1.24746 0.95343,-1.15677 2.24464,0.0879 2.83334,0.62887 1.31749,1.21055 -0.47397,0.18183 -0.90302,0.29733 -0.95343,0.25651 -0.0505,-0.0408 -0.64328,-0.1805 -1.31749,-0.31029 z m -10.93406,-2.14965 c -0.56602,-0.60592 -0.39596,-0.73482 0.96953,-0.73482 1.79789,0 2.25307,0.80642 0.68641,1.2161 -0.53323,0.13948 -1.27841,-0.0772 -1.65594,-0.48128 z m 5.75821,0.5241 c -0.52439,-0.13702 -0.95344,-0.50259 -0.95344,-0.81232 0,-0.30975 0.38782,-0.41435 0.8618,-0.23248 0.47398,0.18182 1.2095,0.33071 1.63448,0.33071 0.42496,0 0.77267,0.24518 0.77267,0.54482 0,0.55928 -0.64314,0.6063 -2.31551,0.16921 z m -17.49518037,-0.9865 c 0.17242,-0.44948 0.51249,-0.81723 0.75558,-0.81723 0.24307,0 0.82977,-0.14888 1.30375997,-0.3307 0.54981,-0.21098 0.8618,-0.0348 0.8618,0.48653 0,0.8263 -1.09375,1.47863 -2.47916997,1.47863 -0.44779,0 -0.62782,-0.33291 -0.44197,-0.81723 z m 6.34489997,0.46268 c 0.39839,-0.6446 -1.47536,-2.36957 -2.57397,-2.36957 -0.91666,0 -2.61880997,-1.62728 -9.6882,-9.26201 -5.4448896,-5.88034 -8.5429996,-10.2158 -10.7065596,-14.98267 -0.68003,-1.49827 -1.46617,-3.15328 -1.74698,-3.67781 -0.28083,-0.52454 -1.08481,-2.4859 -1.78668,-4.3586 -2.49855,-6.6667 -2.83373,-12.78106 -0.81825,-14.92643 0.66231,-0.705 1.54304,-1.28183 1.95718,-1.28183 1.18298,0 3.78287,3.15114 6.51801,7.89995 1.38073,2.39724 2.71857,4.44033 2.97297,4.5402 0.2544196,0.1 0.4625896,0.49743 0.4625896,0.8834 0,0.38599 1.16457,1.90411 2.58792,3.37361 3.15166,3.25382 6.12925,7.23723 6.12925,8.19968 0,0.39044 0.24518003,0.7099 0.54483003,0.7099 0.29965,0 0.54483,0.24267 0.54483,0.53926 0,0.49268 3.44379997,5.91938 6.37026997,10.03819 0.65695,0.92459 1.20859,2.00506 1.22585,2.40105 0.017,0.39596 0.39918,1.08769 0.84866,1.53717 1.33357,1.33359 0.95028,2.881 -1.4128,5.70342 -2.19961,2.62721 -2.21119,2.66352 -0.84938,2.66352 1.94224,0 2.10872,0.64386 0.48188,1.86377 -0.76758,0.57557 -1.24521,0.80319 -1.06142,0.5058 z m -0.13363,-6.9614 c 1.03873,-2.06717 1.61554,-3.87826 1.40767,-4.41996 -0.51964,-1.35418 -1.47193,-0.33613 -3.33835,3.56886 -1.34719,2.81864 -1.4689,3.40593 -0.79423,3.83264 0.43822,0.27718 0.83463,0.50771 0.88091,0.51231 0.0463,0.004 0.87606,-1.56765 1.844,-3.49385 z m -1.78704,-2.43032 c 2.15604,-4.11831 2.32174,-4.96398 0.97264,-4.96398 -0.793,0 -4.81684997,8.01471 -4.37930997,8.72269 0.65742,1.06372 1.18911997,0.47707 3.40666997,-3.75871 z m 4.4899,0.93412 c 0,-1.5804 -0.91927,-1.15626 -1.68193,0.776 -0.38439,0.97387 -0.80976,2.01584 -0.94527,2.3155 -0.13552,0.29965 0.40016,-0.0495 1.19039,-0.77599 0.79025,-0.72646 1.43681,-1.76844 1.43681,-2.31551 z m -7.58836997,-0.58607 c 0.39390997,-0.97387 0.86638997,-1.89326 1.04993997,-2.04308 0.97303,-0.79426 2.65439,-5.19162 2.17018,-5.67584 -0.72684,-0.72681 -1.13585,-0.21063 -3.51210997,4.43237 -1.83185003,3.57922 -2.08633003,5.05723 -0.87077,5.05723 0.24561,0 0.76887,-0.7968 1.16276,-1.77068 z m -0.49551,-4.35859 c 2.53421997,-4.6287 3.00096997,-7.39424 0.93191997,-5.52179 -1.10935997,1.00397 -1.31253997,0.684 -0.51359997,-0.80884 0.59101997,-1.10434 0.004,-2.36734 -0.84343,-1.81296 -0.98667003,0.64588 -5.22789003,9.28538 -4.85471003,9.88918 0.60145,0.97316 1.09173,0.64326 2.18946,-1.47318 1.1681,-2.25217 3.00187003,-4.85724 3.00187003,-4.26451 0,0.43881 -2.60263003,5.2006 -3.33532003,6.10235 -0.52019,0.64021 -0.10108,2.38456 0.57292,2.38456 0.21448,0 1.49738,-2.02266 2.85089003,-4.49481 z M -4.8235894,215.147 c 0.42515,-0.82405 1.57565,-2.94181 2.55664,-4.70613 1.08271,-1.94723 1.65708003,-3.60654 1.46164003,-4.22238 -0.48212003,-1.51901 -1.10972003,-1.2391 -2.30629003,1.02855 -2.66087,5.0427 -3.14277,5.86782 -3.52675,6.03847 -0.22473,0.0999 -0.40861,0.89671 -0.40861,1.77068 0,2.0316 1.19681,2.08049 2.22337,0.0907 z m -2.22168,-2.04309 c 0.49181,-0.89897 1.82058,-3.29338 2.95283,-5.32092 1.22892,-2.20062 1.92037,-4.04683 1.71555,-4.58057 -0.30679,-0.79951 -0.44966,-0.77972 -1.35028,0.18691 -0.55396,0.59459 -1.16325,1.57278 -1.35399,2.17373 -0.19074,0.60096 -1.20142,2.5119 -2.24595,4.24651 -1.91401,3.17853 -2.44406,5.3165 -1.25574,5.06495 0.3539,-0.0749 1.04579,-0.87174 1.53758,-1.77068 z m -1.96361,-1.81858 c 2.76613,-4.70635 5.16256,-9.98402 4.87439,-10.73497 -0.28918,-0.7536 -0.54184,-0.65993 -1.6274,0.60341 -1.37055,1.59503 -1.76703,1.1907 -0.48793,-0.49757 0.41937,-0.55353 0.63052,-1.35033 0.46922,-1.77068 -0.60512,-1.57689 -1.71403,-0.65991 -3.11863,2.57886 -0.79744,1.83873 -1.5810496,3.21199 -1.7413596,3.05166 -0.16036,-0.16037 0.47651,-1.81286 1.4151696,-3.67231 1.55089,-3.07234 1.81689,-4.93453 0.69728,-4.88169 -0.23413,0.0113 -1.6324596,2.42113 -3.1073796,5.35578 -1.90735,3.79497 -2.56036,5.63771 -2.26156,6.3816 0.40528,1.0089 0.4423,1.01051 1.0472,0.0451 1.5558,-2.48257 1.90498,-2.61909 0.92611,-0.36206 -0.63754,1.47003 -0.86486,2.64926 -0.5679,2.9462 0.56286,0.56288 2.16884,-0.54847 2.18789,-1.514 0.008,-0.33788 0.4990896,-1.22724 1.0942896,-1.97639 0.88584,-1.11495 0.82758,-0.79502 -0.32117,1.76345 -0.7718196,1.71901 -1.2396996,3.39024 -1.0397196,3.71381 0.40366,0.65315 0.6786496,0.4717 1.5614996,-1.03034 z m 0.89724,-7.21769 c 0.33447,-0.62497 0.74114,-1.0033 0.90371,-0.84073 0.44908,0.44908 -0.27024,1.97705 -0.93076,1.97705 -0.40292,0 -0.39462,-0.3484 0.0271,-1.13632 z m -4.3288396,-2.4226 c 0.93972,-1.78826 2.0626,-3.92016 2.4952596,-4.73752 0.53489,-1.01048 0.62193,-1.78057 0.27192,-2.40595 -0.4402496,-0.7867 -0.7091696,-0.61103 -1.8581196,1.21372 -3.56675,5.66468 -4.79513,8.74465 -3.86043,9.67935 0.53536,0.53536 1.02972,-0.0928 2.95137,-3.7496 z m -1.58418,-2.90254 c 0.66626,-1.39048 1.50535,-2.8959 1.86462,-3.34538 0.35926,-0.44948 0.73728,-1.40736 0.84005,-2.12865 0.36982,-2.59567 -1.094,-1.6626 -3.24515,2.06854 -2.48963,4.31818 -3.05776,5.79434 -2.54774,6.61957 0.54529,0.88229 1.70243,-0.32203 3.08822,-3.21408 z m -2.37147,-1.5747 c 0.60073,-1.1237 1.5403,-2.90119 2.08797,-3.94998 0.54764,-1.04879 1.1796,-1.9886 1.40434,-2.0885 0.61305,-0.27246 0.49205,-1.42391 -0.22496,-2.14092 -0.48157,-0.48156 -0.79039,-0.34431 -1.28709,0.57206 -0.35942,0.66311 -1.5149,2.79926 -2.56771,4.74702 -1.76831,3.27136 -2.08761,4.90342 -0.95934,4.90342 0.25002,0 0.94607,-0.91941 1.54679,-2.0431 z m -2.09214,-1.43156 c 0,-0.41278 0.352,-1.04265 0.78221,-1.3997 0.43022,-0.35706 0.94006,-1.36775 1.13295,-2.24602 0.19289,-0.87825 0.52265,-1.59682 0.7328,-1.59682 0.65252,0 1.59593,-3.11782 1.15789,-3.82658 -0.64948,-1.05088 -1.4166,-0.24409 -3.5225,3.70471 -1.2771,2.39471 -1.84948,4.08772 -1.65293,4.88908 0.32672,1.33192 1.36958,1.69387 1.36958,0.47533 z m -1.08966,-3.55573 c 0,-0.27087 0.86236,-2.01811 1.91633,-3.88279 1.51188,-2.67476 1.78197,-3.55216 1.27982,-4.15724 -0.52129,-0.6281 -1.01582,-0.19643 -2.73182,2.38453 -1.9714,2.96506 -2.5677,4.95264 -1.73557,5.78477 0.52297,0.52298 1.27124,0.44689 1.27124,-0.12931 z m -1.08963,-4.71551 c 0,-0.43178 0.19976,-0.78507 0.44391,-0.78507 0.24416,0 0.85708,-0.86642 1.36206,-1.92537 1.66394,-3.48928 0.88173,-4.76425 -1.24211,-2.0246 l -1.16148,1.49827 0.85762,-1.77068 c 0.81392,-1.68044 0.80436,-1.77067 -0.18766,-1.77067 -0.57495,0 -1.19418,0.38779 -1.37605,0.86178 -0.53119,1.38423 -0.38441,3.59431 0.21411,3.2244 0.72248,-0.44652 0.68916,0.0561 -0.0861,1.29726 -0.7046,1.12824 -0.22709,3.04671 0.62695,2.51888 0.30178,-0.18653 0.54868,-0.6924 0.54868,-1.1242 z m 128.068339,42.52845 c 0,-0.29965 0.35997,-1.02073 0.7999,-1.60239 0.43994,-0.58168 0.79992,-0.81241 0.79992,-0.51275 0,0.29965 -0.35998,1.02073 -0.79992,1.60239 -0.43993,0.58166 -0.7999,0.8124 -0.7999,0.51275 z m 2.51362,-5.65185 c 0.15585,-0.59568 0.6143,-1.21012 1.01894,-1.3654 0.55021,-0.21113 0.62657,0.0132 0.30288,0.88772 -0.55992,1.5136 -1.70053,1.9258 -1.32182,0.47768 z m 2.91664,-4.15498 c 0,-0.29965 0.23767,-0.91258 0.52816,-1.36206 0.29046,-0.44948 0.52813,-0.57207 0.52813,-0.27242 0,0.29965 -0.23767,0.9126 -0.52813,1.36207 -0.29049,0.44947 -0.52816,0.57206 -0.52816,0.27241 z m 1.07297,-2.99653 c 0,-0.29967 0.25965,-0.54483 0.57698,-0.54483 0.31733,0 0.42545,0.24516 0.24026,0.54483 -0.18522,0.29965 -0.44485,0.54481 -0.57698,0.54481 -0.13213,0 -0.24026,-0.24516 -0.24026,-0.54481 z m 1.6526,-2.88739 c -0.0242,-0.5823 1.575,-3.65051 1.90275,-3.65051 0.14211,0 0.25841,0.34061 0.25841,0.75689 0,0.79549 -2.1298,3.64714 -2.16116,2.89362 z m 2.92958,-6.91945 c 0.16846,-0.74913 0.30972,-1.54595 0.31381,-1.77068 0.0112,-0.58358 1.64191,-0.50822 1.64191,0.0758 0,0.26645 -0.50897,1.06327 -1.13105,1.77068 l -1.13104,1.28621 z m 2.51786,-5.53906 c 0.0188,-0.77581 1.26442,-2.63329 1.7663,-2.63329 0.16582,0 0.12536,0.65823 -0.0898,1.46277 -0.40832,1.52679 -1.70664,2.43327 -1.67653,1.17052 z m 4.09505,-7.58735 c 0.99688,-1.92777 1.63447,-1.75809 1.11851,0.29767 -0.19154,0.76309 -0.71761,1.38742 -1.16906,1.38742 -0.72037,0 -0.71417,-0.20629 0.0507,-1.68509 z m 2.26988,-4.31646 c 0.30515,-1.16693 1.13264,-1.92022 1.59808,-1.45478 0.38151,0.38151 -0.81829,2.55293 -1.41061,2.55293 -0.26104,0 -0.34542,-0.49416 -0.18747,-1.09815 z m -134.9607694,-0.6043 c -1.04878,-0.63444 -2.1334,-1.5529 -2.4102396,-2.04104 -0.27685,-0.48813 -1.28636,-1.67638 -2.24335,-2.64055 -2.12913,-2.14504 -4.48448,-6.98188 -4.91776,-10.09885 -0.17693,-1.27245 -1.33676,-7.21697 -2.5775,-13.21003 -2.99874,-14.48459 -3.02112,-17.48126 -0.17655,-23.64945 1.75966,-3.81579 2.10017,-5.11918 2.03944,-7.80635 -0.0401,-1.77418 -0.33921,-3.72337 -0.66471,-4.33156 -0.70348,-1.31444 0.18823,-6.89962 1.73767,-10.8848 0.54347,-1.39778 1.39037,-4.70759 1.88199,-7.35514 0.86951,-4.68254 2.83946,-9.318035 4.53869,-10.679965 0.5322496,-0.42661 0.4107496,0.0292 -0.33303,1.24924 -2.11198,3.464475 -2.8609,5.143015 -2.8643,6.419845 -0.004,1.63994 0.82664,1.0892 2.15697,-1.42951 0.58326,-1.10428 1.06835,-1.76262 1.07798,-1.46297 0.01,0.29967 -0.62076,1.64811 -1.40088,2.99655 -1.75343,3.0308 -4.70995,11.35838 -4.35809,12.27531 0.14249,0.37146 -0.0672,1.14131 -0.46607,1.71079 -0.9658,1.37886 -1.68464,6.17238 -0.9256,6.17238 0.31348,0 0.71857,-0.4682 0.90019,-1.04046 0.18163,-0.57225 0.73909,-1.36905 1.2388,-1.77068 0.65689,-0.52795 0.5756,-0.18427 -0.29351,1.24097 -1.10515,1.81224 -1.67138,5.38394 -0.85353,5.38394 0.1917,0 0.68264,-0.42905 1.09099,-0.95344 0.68929,-0.8852 0.716,-0.87545 0.37321,0.13627 -0.20308,0.59932 -0.66996,1.58 -1.03753,2.17931 -0.36753,0.5993 -0.84609,1.93968 -1.06345,2.97865 -0.21734,1.03894 -0.57923,2.2648 -0.80419,2.72412 -1.19487,2.43954 -2.19631,5.08313 -1.99995,5.27949 0.12272,0.12272 1.41448,-1.85445 2.8704,-4.39393 1.45592,-2.53945 2.7371,-4.52721 2.8471,-4.41721 0.22501,0.225 -4.61511,9.36593 -5.62977,10.63224 -1.06204,1.32544 -1.77066,4.0041 -1.36386,5.15545 0.3543,1.00264 0.43656,0.97961 1.32062,-0.36964 0.98907,-1.50949 3.22089,-5.57425 5.29736,-9.64788 0.67575,-1.32569 1.32733,-2.11426 1.44797,-1.75235 0.12065,0.36189 -0.0273,0.95621 -0.32875,1.3207 -1.19617,1.44637 -7.18247,13.61109 -7.18247,14.59547 0,1.41903 0.90318,1.32668 1.70659,-0.17447 0.37204,-0.69516 0.7484,-0.94502 0.87074,-0.57805 0.11857,0.35549 -0.16847,1.2323 -0.63772,1.94847 -0.46926,0.71614 -0.79723,1.97813 -0.72885,2.80439 l 0.12441,1.50231 1.21415,-1.5227 c 0.66777,-0.83747 2.99735,-5.04649 5.17682,-9.35338 2.17948,-4.30689 4.1424296,-7.94177 4.3621096,-8.07753 0.67387,-0.4165 -2.0238396,5.30676 -5.2370096,11.11036 -3.80085,6.86504 -5.34773,10.43559 -4.95944,11.44743 0.38802,1.01119 1.71499,0.004 2.24483,-1.70441 0.20076,-0.64717 0.80353,-1.79986 1.33956,-2.56158 2.20405,-3.13214 9.7789596,-18.80299 9.7789596,-20.23059 0,-1.90533 -0.93879,-2.00725 -1.63447,-0.17749 -0.28483,0.74912 -0.78709,1.36204 -1.11616,1.36204 -0.32906,0 0.15528,-1.31698 1.07617,-2.92664 1.66866,-2.91653 2.21312,-5.51606 1.0759,-5.13699 -0.32922,0.10974 -2.80646,4.48195 -5.5049796,9.71604 -2.69854,5.23407 -5.27525,9.88426 -5.72605,10.33373 -0.45079,0.44948 0.47737,-1.63445 2.06258,-4.631 8.1622496,-15.42921 9.7910796,-19.01718 9.6410996,-21.23717 l -0.14644,-2.16833 -1.82311,3.43258 c -1.00269,1.88792 -1.91519,3.34047 -2.02774,3.2279 -0.11256,-0.11255 0.79336,-2.10924 2.01314,-4.43709 2.10052,-4.00863 3.17613,-7.42116 2.33909,-7.42116 -0.6302,0 -1.78728,1.70429 -3.79143,5.58444 -1.7846196,3.45518 -2.8353896,4.85722 -2.0416196,2.72413 0.77457,-2.08145 6.5702996,-12.12234 6.9971696,-12.12234 0.12347,0 0.10521,1.28716 -0.0404,2.86033 -0.4779,5.15838 -0.34174,28.93175 0.18652,32.55326 0.28409,1.94773 0.55623,6.45775 0.60478,10.02226 0.0486,3.56451 0.1054,6.62915 0.12629,6.8103 0.0209,0.18107 0.01,5.64434 -0.0263,12.1404 -0.0544,9.95182 -0.19927,11.94577 -0.92066,12.66716 -1.09197,1.09197 -1.21676,1.08123 -3.50244,-0.30147 z m 3.43495,-1.5976 c 0.18635,-0.71296 0.0608,-1.04345 -0.34508,-0.90831 -0.78364,0.26089 -1.19253,2.02906 -0.46923,2.02906 0.28668,0 0.65311,-0.50435 0.81431,-1.12075 z m -1.34798,-1.39699 c 1.41379,-2.18175 2.20863,-5.65461 1.2942,-5.65461 -0.79074,0 -4.01461,6.06592 -3.68306,6.9299 0.43361,1.12998 1.03998,0.80626 2.38886,-1.27529 z m -0.86112,-4.27973 c 1.15405,-2.10093 2.03557,-4.45401 2.02578,-5.4075 -0.017,-1.60788 -0.0555,-1.63744 -0.82315,-0.62239 -1.35686,1.79437 -4.60776,8.35806 -4.60776,9.30323 0,1.73351 1.38761,0.3996 3.40513,-3.27334 z m -0.99576,-3.77133 c 1.85255,-3.45371 3.03886,-6.33756 3.03886,-7.38727 0,-0.94704 -0.19705,-1.60012 -0.43789,-1.45126 -0.9557,0.59066 -6.7595896,12.87418 -6.4563396,13.66441 0.17712,0.46173 0.43338,0.8395 0.56932,0.8395 0.13589,0 1.6146696,-2.54942 3.2860496,-5.66538 z m -0.60205,-4.61361 c 2.3359,-4.51788 3.64091,-7.68714 3.64091,-8.84209 0,-2.38891 -0.4139,-1.84922 -3.80054,4.95566 -1.5659,3.14635 -3.4502196,6.8845 -4.1874096,8.30696 -1.33295,2.5721 -1.31288,4.29698 0.0369,3.1767 0.36805,-0.30545 2.3075796,-3.72422 4.3100896,-7.59723 z m -0.68466,-4.57903 c 3.10109,-6.16016 4.32491,-9.16763 4.32323,-10.62407 l -0.002,-2.03153 -1.62979,2.45172 c -0.89641,1.34844 -1.63298,2.69688 -1.63683,2.99653 -0.004,0.29964 -1.18945,2.87393 -2.6346396,5.72064 -1.44517,2.8467 -2.87581,5.66618 -3.17918,6.26547 -0.30337,0.59933 -0.84669,1.65664 -1.20739,2.3496 -0.36067,0.69296 -0.49046,1.78076 -0.28842,2.41735 0.36063,1.13624 0.38166,1.1381 1.14858,0.10221 0.42968,-0.58042 2.72771,-4.92195 5.1067796,-9.64784 z m -4.5532196,2.59948 c 0.58983,-1.19862 2.82885,-5.64378 4.9756196,-9.87817 3.48681,-6.87757 4.70183,-10.55274 3.48882,-10.55274 -0.22792,0 -1.24891,1.59416 -2.26891,3.54257 -2.78362,5.31738 -2.63292,3.86323 0.18126,-1.74968 1.59663,-3.18441 2.34053,-5.28895 2.14023,-6.05489 -0.45045,-1.72247 -0.9875,-1.10826 -3.62848,4.14968 -1.31038,2.60883 -3.8736996,7.60134 -5.6962696,11.09447 -2.17769,4.17374 -3.21208,6.73992 -3.01719,7.48521 0.42801,1.6367 0.94237,1.08028 3.35945,-3.63426 3.57492,-6.97287 3.8891796,-7.5109 3.8905296,-6.66075 7e-4,0.4495 -1.4687996,3.70285 -3.2655896,7.22972 -3.10833,6.10125 -3.71838,7.93709 -2.90713,8.74835 0.42497,0.42496 1.27321,-0.72333 2.74759,-3.71951 z m 1.79607,-15.93393 c 2.2474096,-4.42108 4.6237896,-8.89643 5.2808496,-9.94523 0.94915,-1.51502 1.10721,-2.29872 0.7692,-3.81376 l -0.42543,-1.90687 -2.45927,4.9034 c -1.3526,2.69688 -4.0891696,7.90355 -6.0812596,11.57035 -3.44873,6.34802 -4.10714,8.19379 -3.23422,9.0667 0.60879,0.60879 1.76358,-1.24537 6.15013,-9.87459 z m 141.672429,29.47869 c -0.01,-0.34138 0.46406,-1.19948 1.05339,-1.90689 0.58933,-0.70742 1.07968,-1.00692 1.08964,-0.66554 0.01,0.34136 -0.46406,1.19947 -1.05339,1.90688 -0.58933,0.70743 -1.07967,1.00691 -1.08964,0.66555 z m 3.25082,-4.55515 c 1.07649,-0.6957 2.88166,-0.6957 2.4517,0 -0.18521,0.29964 -0.99647,0.54106 -1.80283,0.53646 -1.14673,-0.006 -1.28808,-0.12347 -0.64887,-0.53646 z m 5.44825,-0.54483 c 0,-0.29965 0.91938,-0.54108 2.04308,-0.53649 1.51973,0.006 1.83374,0.14361 1.22585,0.53649 -1.07378,0.69394 -3.26893,0.69394 -3.26893,0 z m 7.08271,-1.03747 c 0,-0.48159 1.28589,-1.14184 2.22385,-1.14184 1.17784,0 0.37446,1.40722 -0.8618,1.50953 -0.74913,0.0619 -1.36205,-0.10351 -1.36205,-0.36769 z m 7.0827,-1.0224 c 0,-0.67529 3.22419,-1.72228 3.57178,-1.15984 0.16921,0.27369 -0.33607,0.74234 -1.12276,1.04143 -1.72033,0.65407 -2.44902,0.68932 -2.44902,0.11839 z M 11.920721,176.21613 c -0.50513,-0.38779 -1.42789,-2.17612 -2.0505604,-3.97403 -1.05873,-3.05697 -1.09314,-3.7108 -0.53043,-10.08286 0.5142,-5.82287 0.47229,-7.44056 -0.28821,-11.12237 -0.48947,-2.36964 -1.0048,-4.49431 -1.1452,-4.72145 -0.14041,-0.22716 -0.49471,-1.67572 -0.7874,-3.21903 -0.42226,-2.22655 -0.36239,-3.13427 0.28986,-4.3956 1.40417,-2.71538 2.6992204,-3.18707 8.1544704,-2.97003 2.69688,0.10729 8.82615,0.33808 13.6206,0.51287 10.96783,0.39981 15.8108,1.42465 18.79231,3.97669 1.20087,1.02792 2.18343,2.29932 2.18343,2.82533 0,0.52602 0.15867,1.11502 0.3525,1.3089 1.05376,1.05377 2.477323,6.68195 2.712843,10.72559 0.426,7.31345 -1.642693,14.7124 -4.927133,17.62255 -3.20803,2.84244 -6.77353,3.43341 -23.47255,3.89049 -9.37537,0.25661 -12.18616,0.17448 -12.90453,-0.37705 z m 25.96784,-1.19612 c 3.9795,-0.37649 9.13151,-2.34928 10.47441,-4.01086 0.85859,-1.06235 2.46163,-4.36666 2.67163,-5.50702 0.0757,-0.41077 0.43076,-1.96912 0.78914,-3.46298 0.590223,-2.46034 0.51062,-5.08229 -0.30224,-9.95556 -0.15,-0.89895 -0.40425,-2.42076 -0.56517,-3.38179 -0.45924,-2.74306 -2.21989,-6.29469 -3.89547,-7.85814 -2.71914,-2.53712 -5.84883,-3.09483 -20.97386,-3.73754 -12.09719,-0.51406 -14.25658,-0.48463 -15.93611,0.21712 -1.1250404,0.47008 -1.9777104,1.22475 -2.0257604,1.79297 -0.0455,0.5397 -0.12197,1.34901 -0.16958,1.7985 -0.0476,0.44948 0.2444,1.92051 0.64908,3.26895 1.5874604,5.28954 2.1439804,9.58066 1.8371504,14.16542 -0.7269604,10.86259 0.0188,15.42506 2.70434,16.55403 1.56923,0.65959 18.1767,0.73807 24.74253,0.1169 z m -14.31064,-20.26725 c -0.38638,-0.41924 -0.46214,-0.76228 -0.16827,-0.76228 0.56578,0 1.3848,1.03638 1.06165,1.34336 -0.10484,0.0996 -0.5069,-0.16187 -0.89328,-0.58108 z m 2.06457,-0.55657 c 0,-0.72397 0.14794,-0.76119 0.81724,-0.20571 0.44947,0.37304 0.81724,0.77081 0.81724,0.88395 0,0.11312 -0.36777,0.20571 -0.81724,0.20571 -0.44947,0 -0.81724,-0.39779 -0.81724,-0.88395 z m -9.80683,-4.46061 c 0,-0.29258 0.38825,-0.68091 0.86276,-0.863 0.53061,-0.20361 0.77968,-0.0819 0.64699,0.31627 -0.27149,0.81442 -1.50975,1.26284 -1.50975,0.54673 z m 2.72411,-0.64852 c 0,-0.29965 0.23071,-0.54483 0.51268,-0.54483 0.28197,0 0.66419,0.24518 0.8494,0.54483 0.1852,0.29967 -0.0455,0.54483 -0.51268,0.54483 -0.46717,0 -0.8494,-0.24516 -0.8494,-0.54483 z m 8.7172,-2.72412 c -0.49105,-0.31734 -0.55824,-0.53146 -0.16827,-0.53648 0.35688,-0.004 0.8004,0.23683 0.98561,0.53648 0.41804,0.67642 0.22941,0.67642 -0.81725,0 z m -8.7172,-3.38488 c 0,-0.56853 0.63145,-0.52966 1.62762,0.10013 0.63688,0.40268 0.5494,0.49271 -0.40864,0.42054 -0.67042,-0.0505 -1.21898,-0.28483 -1.21898,-0.52071 z m 18.10407,0.0132 c 0.33673,-1.01023 1.50961,-1.17778 1.50961,-0.21566 0,0.47444 -0.38818,0.86264 -0.86263,0.86264 -0.47446,0 -0.7656,-0.29115 -0.64698,-0.64698 z m 123.550229,33.22702 c 0,-0.23947 0.30647,-0.43876 0.68103,-0.44285 0.37455,-0.004 1.23266,-0.15528 1.90689,-0.33596 0.67732,-0.18144 1.22585,-0.083 1.22585,0.22024 0,0.30182 -0.85811,0.64893 -1.90689,0.77138 -1.04877,0.12253 -1.90688,0.0267 -1.90688,-0.21281 z m 8.44478,-1.99771 c 0.86757,-0.85972 3.54135,-1.37016 3.54135,-0.67605 0,0.33213 -0.18389,0.62403 -0.40862,0.64869 -0.22474,0.0246 -1.14412,0.16243 -2.0431,0.30602 -1.08175,0.17298 -1.45023,0.0787 -1.08963,-0.27866 z m 7.08271,-1.70665 c 0.59931,-0.25754 1.58,-0.48171 2.17929,-0.49818 0.89936,-0.0247 0.94693,0.0623 0.27242,0.49818 -0.44948,0.29048 -1.43017,0.51466 -2.17929,0.49819 -1.24742,-0.0275 -1.27035,-0.0694 -0.27242,-0.49819 z m 6.26548,-1.0261 c 0,-0.66856 1.91912,-1.10589 2.70949,-0.61741 0.46536,0.28762 0.39224,0.50146 -0.25666,0.75046 -1.28811,0.49429 -2.45283,0.43112 -2.45283,-0.13307 z m 6.31433,-1.23223 c 0.35414,-0.57303 2.94816,-0.62336 2.94644,-0.0572 -5.4e-4,0.22474 -0.7287,0.43434 -1.61778,0.46579 -0.88911,0.0315 -1.48699,-0.15245 -1.32866,-0.40862 z m 6.51139,-0.50196 c 0.17298,-0.27975 1.04988,-0.50864 1.94884,-0.50864 2.13356,0 1.57221,0.90826 -0.59952,0.97001 -0.91503,0.026 -1.52223,-0.18163 -1.34932,-0.46137 z m 6.24313,-0.46746 c 0,-0.93268 1.43835,-1.2976 2.55483,-0.64819 0.87033,0.50628 0.87948,0.57581 0.0776,0.59043 -0.49988,0.01 -1.2967,0.16546 -1.77067,0.34728 -0.47482,0.18219 -0.8618,0.0521 -0.8618,-0.28952 z M -11.840539,132.48126 c 0.65193,-1.34186 1.27878,-2.34631 1.393,-2.2321 0.24645,0.24648 -1.95499,4.67185 -2.32407,4.67185 -0.13986,0 0.27915,-1.09787 0.93107,-2.43975 z m -1.69864,-2.19126 c 0,-0.29965 0.4698,-1.40291 1.04399,-2.4517 0.57418,-1.04879 1.04397,-1.66171 1.04397,-1.36206 0,0.29966 -0.46979,1.40292 -1.04397,2.45172 -0.57419,1.04879 -1.04399,1.66171 -1.04399,1.36204 z m -0.56713,-5.17581 c -0.0215,-0.91209 1.94508,-4.35861 2.48704,-4.35861 0.19094,0 0.0789,0.32334 -0.2492,0.71855 -0.32799,0.3952 -0.96134,1.55976 -1.40744,2.58792 -0.44611,1.02815 -0.81978,1.50161 -0.8304,1.05214 z m -0.56819,-5.01833 c 0,-0.46272 0.4079,-1.1778 0.90644,-1.58907 0.82914,-0.68396 0.84608,-0.63158 0.19861,0.61432 -0.94916,1.82649 -1.10505,1.96399 -1.10505,0.97475 z m 3.26894,-0.235 c 0,-0.29232 0.38128,-1.00739 0.8473,-1.58904 0.7989096,-0.99721 0.8102596,-0.97984 0.19862,0.30448 -0.79426,1.66771 -1.04592,1.97679 -1.04592,1.28456 z m 218.202099,-1.89069 c -0.89896,-0.29583 -2.12481,-0.60835 -2.72412,-0.6945 -1.20331,-0.17298 -4.83821,-1.25217 -6.53789,-1.94106 -4.58734,-1.85927 -5.76326,-2.25904 -8.15859,-2.77355 -1.4907,-0.32018 -2.85998,-0.82423 -3.04283,-1.12011 -0.44296,-0.71672 -9.81592,-4.23306 -13.58808,-5.09768 -3.81213,-0.87378 -8.20688,-1.99752 -9.26201,-2.3683 -0.44948,-0.15792 -1.67533,-0.39151 -2.72412,-0.51906 -1.0488,-0.12761 -2.15206,-0.42749 -2.45172,-0.66651 -0.29965,-0.23904 -1.62311,-0.61263 -2.94104,-0.83018 -2.46671,-0.40715 -5.45189,-1.48457 -6.20052,-2.237905 -0.23342,-0.23485 -0.72377,-0.48491 -1.08966,-0.55564 -0.36588,-0.0708 -2.01371,-0.65846 -3.66179,-1.30602 -1.64809,-0.64756 -4.23178,-1.5837 -5.74152,-2.0803 -4.39736,-1.44642 -6.43623,-3.4853 -6.96033,-6.96027 -0.57261,-3.79672 2.3964,-6.526253 7.64021,-7.023947 1.43547,-0.136274 4.20354,-0.492135 6.15129,-0.790836 1.94774,-0.298712 6.23824,-0.670671 9.53442,-0.826593 7.65044,-0.361874 11.05357,-0.731133 12.17898,-1.321458 3.85014,-2.019555 9.99713,-0.760521 13.71125,2.808331 2.79103,2.681857 6.90093,5.856726 7.58163,5.856726 0.27531,0 0.98269,0.61293 1.57196,1.362074 0.58928,0.749125 1.29219,1.362046 1.56205,1.362046 0.68988,0 9.40936,9.473857 10.67203,11.595342 0.57381,0.96408 1.57144,2.26361 2.217,2.88786 2.0801,2.01144 6.05104,7.50567 7.19217,9.95116 1.23213,2.64057 0.872,3.60469 -1.39194,3.72617 -1.04631,0.0561 -2.63787,-0.14004 -3.53683,-0.43579 z m 3.15998,-2.33593 c 0.77758,-2.33273 -0.39814,-3.05183 -1.50142,-0.91831 -0.89382,1.72847 -0.70076,2.99628 0.40041,2.62921 0.32837,-0.10936 0.82383,-0.87936 1.10101,-1.7109 z m 1.47102,1.03516 c 0,-0.44947 -0.21894,-0.81724 -0.48654,-0.81724 -0.26758,0 -0.62763,0.36777 -0.80012,0.81724 -0.19103,0.49781 -9.8e-4,0.81725 0.48654,0.81725 0.44006,0 0.80012,-0.36777 0.80012,-0.81725 z m -3.53456,-2.46675 c 0.86307,-1.91399 0.89797,-2.31826 0.23538,-2.72777 -0.92574,-0.57212 -1.14575,-0.36674 -2.63857,2.46313 -1.0709,2.03 -1.08343,2.19476 -0.19194,2.51974 1.28076,0.46689 1.42369,0.34268 2.59513,-2.2551 z m -4.34105,1.23257 c 0.93919,-0.66053 2.97219,-4.47395 2.97219,-5.5751 0,-2.20649 -1.09148,-1.49474 -2.88369,1.88038 -1.97874,3.72642 -2.01036,5.04632 -0.0884,3.69472 z m -0.41406,-4.08815 c 1.78911,-3.43672 2.14259,-4.75691 1.27367,-4.75691 -0.65701,0 -1.26463,0.84519 -3.26257,4.53814 -1.67275,3.09188 -1.82573,4.39925 -0.45313,3.87254 0.37111,-0.1423 1.47002,-1.7866 2.44203,-3.65377 z m -2.1681,-1.2157 c 1.25698,-2.24747 2.28541,-4.43953 2.28541,-4.87126 0,-2.05476 -1.22589,-1.03637 -3.39374,2.81934 -3.15755,5.61598 -3.33994,6.13825 -2.1435,6.13825 0.63631,0 1.74706,-1.39579 3.25183,-4.08633 z m -3.45818,0.95359 c 4.01415,-7.81936 4.25054,-8.38508 3.72359,-8.91202 -0.56589,-0.56589 -1.63981,0.74935 -3.60675,4.41722 -1.25657,2.3432 -2.22676,3.44747 -1.67533,1.90688 0.21453,-0.5993 1.08462,-2.14016 1.93356,-3.42415 1.71705,-2.59695 2.39276,-4.65028 1.82994,-5.560925 -0.60259,-0.97505 -1.78155,0.35821 -4.17814,4.724935 -1.20216,2.1904 -2.431,4.1341 -2.73079,4.31937 -0.62557,0.38663 3.70723,-7.78437 4.82908,-9.106905 0.61052,-0.71973 0.61575,-0.98052 0.0296,-1.46712 -0.39218,-0.32548 -0.9581,-0.42192 -1.25758,-0.21431 -1.0052,0.69677 -7.31891,12.081815 -7.31891,13.197595 0,0.98205 1.56702,0.53597 2.4512,-0.69781 l 0.87853,-1.22585 -0.34695,1.43884 c -0.46787,1.94031 0.7613,2.68999 1.81314,1.10586 0.43188,-0.65046 1.04954,-1.18264 1.37257,-1.18264 0.38297,0 0.35985,0.22747 -0.0664,0.65379 -0.92239,0.9224 -0.81317,2.61515 0.16865,2.61515 0.45241,0 1.42038,-1.16456 2.15108,-2.58791 z m -6.54521,-5.449 c 0.88232,-1.72259 2.38573,-4.37869 3.34089,-5.902445 1.27758,-2.03806 1.60249,-3.01024 1.22904,-3.67757 -0.83831,-1.49794 -1.39096,-1.06892 -3.19412,2.47947 -1.64107,3.229385 -3.5814,6.284245 -3.17273,4.995145 0.10597,-0.33434 1.2941,-2.71437 2.64024,-5.288965 2.03356,-3.88924 2.32428,-4.800162 1.71874,-5.385173 -0.9538,-0.921461 -1.51387,-0.114063 -6.16161,8.881948 -2.30468,4.46087 -3.41614,7.15787 -3.04451,7.38753 0.56708,0.35047 1.27616,-0.3242 3.26877,-3.11014 0.66329,-0.92738 0.58469,-0.53708 -0.25858,1.28385 -1.04288,2.25194 -1.09972,2.68629 -0.40822,3.11846 0.96974,0.60609 1.76276,-0.3321 4.04209,-4.78211 z m -3.56739,-5.3689 c 4.28735,-8.069174 4.86305,-10.032713 2.69786,-9.201852 -1.17089,0.449309 -8.86858,15.763922 -8.45945,16.830102 0.18447,0.48078 0.53986,0.87414 0.78975,0.87414 0.24984,0 2.48718,-3.82608 4.97184,-8.50239 z m -5.23586,3.73518 c 6.74671,-12.885462 7.14063,-13.760726 6.48706,-14.414293 -0.8459,-0.845905 -1.19337,-0.44855 -3.67183,4.198838 -1.11862,2.09758 -2.36737,4.29738 -2.77501,4.88843 -1.2669,1.837055 -0.81387,0.35266 0.71169,-2.33187 3.05425,-5.374602 3.89969,-7.43856 3.33228,-8.135001 -0.72283,-0.887183 -1.34922,-0.447101 -2.37086,1.665725 -0.46101,0.953382 -1.25961,2.468944 -1.77463,3.367907 -0.51502,0.898949 -1.52616,2.673689 -2.24697,3.943869 -0.72081,1.27017 -1.40073,2.21924 -1.51094,2.10903 -0.1103,-0.11011 1.27972,-2.91238 3.08874,-6.227058 1.97723,-3.622897 3.15556,-6.374719 2.95425,-6.899258 -0.52995,-1.381112 -1.35905,-0.713171 -2.93215,2.362265 -1.33574,2.611388 -2.71667,4.549375 -2.71667,3.812563 0,-0.164508 0.87981,-1.957151 1.95512,-3.983469 1.36088,-2.564453 1.78188,-3.857439 1.38514,-4.254154 -0.77575,-0.775752 -2.04892,0.339476 -3.39115,2.970483 -0.58349,1.143749 -1.18349,2.079544 -1.33331,2.079544 -0.38437,0 1.89775,-4.450563 2.82348,-5.506336 0.64998,-0.741287 0.65294,-0.970417 0.0192,-1.496347 -1.14365,-0.949143 -2.13011,0.44579 -7.17063,10.140041 -1.60435,3.085576 -2.88717,4.453766 -1.81613,1.936966 0.6667,-1.566643 3.43461,-6.461607 5.71246,-10.102278 1.38356,-2.211361 1.63708,-3.689234 0.63283,-3.689234 -0.88894,0 -2.63081,1.657888 -2.63081,2.503991 0,0.385357 -0.24238,0.85044 -0.53857,1.033502 -0.65407,0.404246 -0.13327,-1.133713 0.96547,-2.85092 0.69304,-1.083139 0.67819,-1.259675 -0.13213,-1.570601 -0.50208,-0.192683 -1.11129,-0.133818 -1.3538,0.130625 -0.50571,0.55166 -2.65389,4.338276 -5.37274,9.470572 -2.03782,3.846782 -3.3751,5.934593 -3.3751,5.269363 0,-0.44941 3.43624,-7.026427 6.02653,-11.53485 1.78049,-3.098939 1.96442,-4.086165 0.76126,-4.086165 -0.46186,0 -1.60176,1.22585 -2.53314,2.72411 -0.93138,1.498269 -1.77409,2.72412 -1.8727,2.72412 -0.24118,0 0.98109,-2.834732 1.56477,-3.629048 0.25562,-0.347896 0.26901,-0.748159 0.0298,-0.88948 -0.74316,-0.438919 -2.88676,0.628684 -2.88676,1.437729 0,0.422445 -0.33417,1.045421 -0.74259,1.384374 -0.6016,0.499302 -0.6923,0.353199 -0.4777,-0.769433 0.25015,-1.308593 0.18786,-1.350639 -1.1181,-0.755582 -0.76066,0.346574 -1.51927,1.029312 -1.68579,1.517188 -0.16658,0.487846 -0.54784,1.254775 -0.84736,1.704252 -0.29953,0.449477 -2.1637,3.758736 -4.14261,7.3539 -3.72882,6.774285 -4.81256,9.71623 -3.47143,9.42376 0.8364,-0.18239 2.82061,-3.118215 5.07957,-7.515635 3.01146,-5.862285 5.35596,-9.859211 5.62522,-9.589947 0.15021,0.150203 -0.82715,2.185611 -2.17207,4.522974 -4.74529,8.246893 -6.55698,12.258948 -5.76295,12.762298 1.04994,0.66554 1.20801,0.60124 1.85111,-0.75308 1.38365,-2.913955 5.83798,-11.076036 6.31593,-11.573257 0.83863,-0.872504 -0.0151,1.041615 -2.61387,5.862472 -1.30639,2.42314 -2.37525,4.71647 -2.37525,5.09631 0,0.379855 -0.24517,0.842145 -0.54482,1.027335 -0.29966,0.18521 -0.54483,0.55953 -0.54483,0.83185 0,0.8251 2.40807,-0.32047 3.01334,-1.43352 0.30889,-0.568045 1.00119,-1.852395 1.53842,-2.854115 0.53727,-1.0017 1.09375,-1.70438 1.23665,-1.5615 0.14286,0.14286 -0.48908,1.64402 -1.40441,3.33586 -1.41812,2.621205 -1.53761,3.124615 -0.80818,3.404515 1.08506,0.41639 1.38533,0.0836 3.52135,-3.902385 1.7731,-3.30874 3.25451,-5.648681 3.25451,-5.14058 0,0.15284 -0.9807,2.16116 -2.17932,4.46315 -2.37469,4.560765 -2.57315,5.308445 -1.40895,5.308445 0.42369,0 1.6719,-1.61211 2.77379,-3.582505 2.51707,-4.50092 3.10794,-4.27734 0.70726,0.267635 -1.49907,2.83803 -1.65262,3.4455 -0.97653,3.86335 1.11583,0.68963 1.09513,0.71966 6.19339,-8.988915 0.78554,-1.49589 1.4358,-2.476581 1.44509,-2.179309 0.01,0.297282 -1.27789,3.055399 -2.86034,6.129179 -2.38104,4.625035 -2.74074,5.675725 -2.08593,6.093355 0.61029,0.38922 1.15328,-0.14136 2.37436,-2.31977 2.29846,-4.100555 3.15829,-5.399275 3.40881,-5.148755 0.12197,0.12197 -0.62749,1.7982 -1.66562,3.724845 -2.14042,3.97233 -2.22916,4.32018 -1.10185,4.32018 0.44572,0 1.4441,-1.00385 2.21862,-2.23077 1.72165,-2.72724 2.36534,-2.49023 0.80101,0.29493 -0.61973,1.10337 -0.98503,2.23549 -0.81177,2.51581 0.67322,1.08932 1.76205,0.41569 2.7038,-1.67275 1.01505,-2.25096 2.45029,-3.90269 2.45029,-2.81984 0,0.31865 -0.2469,0.73197 -0.54868,0.91848 -0.92821,0.57366 -2.27125,3.59308 -1.95954,4.40537 0.62207,1.6211 1.90066,0.63013 3.75397,-2.9095 z m -5.60434,-7.486225 c 0,-0.49703 1.6273,-3.546448 1.89255,-3.546448 0.39333,0 -0.88226,3.253678 -1.40137,3.574498 -0.27014,0.16695 -0.49118,0.15433 -0.49118,-0.028 z m -5.59672,-7.632633 c 1.11204,-2.247414 2.18137,-4.086185 2.37629,-4.086185 0.19492,0 -0.60913,1.838771 -1.78676,4.086185 -1.17766,2.247385 -2.24697,4.086185 -2.37631,4.086185 -0.1293,0 0.67475,-1.8388 1.78678,-4.086185 z m 5.06025,2.347655 c -0.004,-0.506715 0.23682,-1.072808 0.53647,-1.258019 0.68953,-0.426141 0.68953,0.295094 0,1.362065 -0.45515,0.704289 -0.52928,0.689905 -0.53647,-0.104085 z m -10.10056,-4.663161 c 0.84447,-1.742375 1.37502,-2.23867 1.37502,-1.286214 0,0.266445 -0.50247,1.063265 -1.11659,1.770678 l -1.11661,1.286214 z m -12.24558,10.078019 c 1.04877,-1.86639 2.72139,-4.866836 3.7169,-6.667632 0.99551,-1.800806 2.42988,-4.340563 3.18748,-5.643901 1.6833,-2.895894 1.00373,-4.312131 -1.0086,-2.101913 -1.98556,2.180791 -9.31987,16.084826 -8.96816,17.001376 0.53604,1.396935 1.1002,0.921725 3.07238,-2.58793 z m -3.95339,1.09088 c 0.29625,-0.37457 1.14409,-1.78432 1.88408,-3.13275 0.74002,-1.348444 2.15127,-3.922735 3.13612,-5.720643 0.98485,-1.797937 2.28205,-4.0837 2.88269,-5.079504 0.83921,-1.391324 0.94313,-1.959014 0.44876,-2.45172 -0.937,-0.933833 -2.6435,1.418208 -6.74574,9.297476 -0.54198,1.040995 -1.09468,1.783475 -1.22822,1.649952 -0.25001,-0.249991 1.3276,-3.747349 1.90964,-4.233451 0.17938,-0.149819 0.61443,-0.885339 0.96671,-1.634473 0.35231,-0.749125 1.1682,-2.158856 1.8131,-3.132734 1.13526,-1.714377 1.13887,-1.770679 0.11388,-1.770679 -0.58228,0 -1.41908,0.429061 -1.85953,0.953442 -0.96199,1.145346 -6.45077,10.741485 -6.45077,11.278034 0,0.20751 -0.37871,0.75602 -0.84156,1.21886 -0.91007,0.91007 -0.80694,2.07715 0.18352,2.07715 0.33729,0 1.23624,-0.84445 1.99769,-1.87652 1.61613,-2.190532 1.87061,-1.59596 0.32226,0.75289 -0.58029,0.88027 -0.93195,1.79966 -0.7815,2.04308 0.41002,0.66345 1.63864,0.5332 2.24891,-0.23841 z m -2.19017,-7.136206 c 4.28079,-7.525418 4.74564,-8.47255 4.35179,-8.866406 -0.77192,-0.771908 -2.05301,0.475415 -4.09037,3.982553 -3.69189,6.355347 -5.3681,9.732919 -5.15198,10.381279 0.46033,1.38102 1.8955,-0.23225 4.89056,-5.497426 z m -2.41567,-1.400691 c 3.55044,-6.306636 4.1239,-7.671629 3.22293,-7.671629 -0.50066,0 -3.67235,4.118639 -5.76893,7.491328 -0.79166,1.273526 -1.53247,2.315506 -1.64625,2.315506 -0.35226,0 1.52577,-3.440337 3.36855,-6.170816 0.96547,-1.430541 1.7554,-2.711284 1.7554,-2.846088 0,-0.134766 -0.58317,-0.245102 -1.29593,-0.245102 -1.08033,0 -1.80538,0.926203 -4.35858,5.567873 -1.68449,3.062344 -3.06269,5.881795 -3.06269,6.265485 0,1.24976 1.57847,0.73478 2.45423,-0.800673 0.82407,-1.444886 0.84145,-1.449727 0.48745,-0.136274 -0.2019,0.749127 -0.48226,1.668517 -0.62303,2.043087 -0.14869,0.39542 0.1775,0.68103 0.77754,0.68103 0.75248,0 2.02753,-1.76569 4.68931,-6.493805 z m -5.92846,-0.594672 c 1.67551,-2.999694 3.04638,-5.573985 3.04638,-5.720649 0,-0.146625 -0.48026,-0.266671 -1.06727,-0.266671 -1.45421,0 -6.79247,9.687822 -5.9185,10.740883 0.31971,0.385226 0.65144,0.700426 0.73715,0.700426 0.0857,0 1.52673,-2.454276 3.20224,-5.453989 z m -2.53806,-0.799679 c 1.27353,-2.234549 2.31551,-4.193317 2.31551,-4.352817 0,-0.159421 -0.49036,-0.289996 -1.08966,-0.289996 -0.59932,0 -1.08966,0.234296 -1.08966,0.520645 0,0.501756 -2.43252,4.326751 -3.12468,4.913398 -0.18596,0.157539 0.32873,-0.877945 1.14382,-2.3013 1.52614,-2.665009 1.03404,-3.547509 -0.79938,-1.433549 -1.36417,1.572908 -1.78585,3.114979 -1.08326,3.961545 0.32181,0.387753 0.43437,0.855744 0.25011,1.039999 -0.42116,0.421163 0.16339,2.018451 0.73598,2.010682 0.23414,-0.0039 1.46769,-1.834058 2.74122,-4.068607 z M -13.040019,117.26985 c 0,-0.11933 0.60997,-1.28381 1.3555,-2.58791 1.62786,-2.84756 1.8172796,-2.38995 0.26789,0.64711 -0.95407,1.87016 -1.62339,2.67033 -1.62339,1.9408 z m 3.2689496,-0.67314 c 0,-0.30705 2.14021,-4.60723 4.57353,-9.1893 1.00809,-1.8983 1.16035,-4.27221 0.25464,-3.9703 -0.34104,0.11368 -1.48318,1.85231 -2.53806,3.86363 -1.05489,2.01132 -2.02482,3.55011 -2.15539,3.41953 -0.13062,-0.13062 0.99775,-2.55629 2.5074,-5.3905 2.38897,-4.48503 2.6516,-5.28054 2.02587,-6.136285 -0.66815,-0.91376 -0.78244,-0.86043 -1.6178,0.75502 -1.21887,2.357015 -1.62615,2.216485 -0.48876,-0.16865 0.50012,-1.04879 1.13767,-1.90689 1.41678,-1.90689 0.2791,0 0.37924,-0.49034 0.22252,-1.08964 -0.15679,-0.59931 -0.0673,-1.08965 0.19848,-1.08965 1.06718,0 2.06333,8.549545 1.55528,13.348385 -0.26056,2.46109 -0.36585,2.74745 -0.42615,1.15895 -0.10824,-2.84864 -1.02081,-2.04195 -3.31098,2.92668 -1.59463,3.45957 -2.21736,4.43385 -2.21736,3.46902 z m -3.1956096,-5.54593 c 0.69901,-1.21457 1.3543,-2.12494 1.45621,-2.02303 0.28762,0.28764 -1.44848,3.44107 -2.12448,3.85885 -0.33146,0.20486 -0.0307,-0.62127 0.66827,-1.83582 z m 3.5744796,-6.90549 c 0.49833,-1.04503 1.00278,-1.80331 1.121,-1.68509 0.24924,0.24922 -1.40467,3.58514 -1.7774696,3.58514 -0.13721,0 0.1581096,-0.85502 0.6564696,-1.90005 z m 0.166,-7.906785 c 0,-0.29965 0.36776,-0.54483 0.81723,-0.54483 0.44949,0 0.81724,0.24518 0.81724,0.54483 0,0.29964 -0.36775,0.54482 -0.81724,0.54482 -0.44947,0 -0.81723,-0.24518 -0.81723,-0.54482 z m -8.6144596,-1.65571 c -0.65579,-0.61097 -1.19238,-1.468358 -1.19238,-1.905295 0,-0.436956 -0.85808,-1.744267 -1.90687,-2.905151 -3.22511,-3.569798 -3.25827,-3.508843 6.9068,-12.690365 5.1169196,-4.621825 7.7898196,-6.445108 9.4528896,-6.448184 0.60754,-9.85e-4 1.58824,-0.334901 2.17931,-0.74174 0.59106,-0.406839 2.02740003,-1.049789 3.19187003,-1.428778 1.16444997,-0.378979 2.97615997,-1.271958 4.02598997,-1.9844 1.04985,-0.712461 2.31038,-1.295362 2.80121,-1.295362 1.06765,0 3.3141304,1.490077 3.3141304,2.19824 0,0.276086 0.87089,2.362097 1.93528,4.635567 l 1.93528,4.133594 -1.5062,1.19039 c -0.82841,0.65473 -3.02294,2.17109 -4.8767404,3.369702 -3.01831,1.951541 -10.18465,6.793092 -17.15866,11.592339 -1.3799896,0.949656 -2.8197596,2.100963 -3.1994596,2.558483 -1.01441,1.22232 -4.46609,1.05914 -5.90245,-0.27904 z m 6.21509,-6.280756 c 1.6790396,-3.466088 3.1721196,-6.182637 3.3179996,-6.036781 0.14586,0.145866 -0.98187,2.812255 -2.5059996,5.925331 -1.52417,3.113075 -2.77122,5.831696 -2.77122,6.041396 0,0.2097 0.51264,0.0726 1.13922,-0.30437 0.62657,-0.37711 2.5898296,-3.56641 4.3627896,-7.08733 1.77297,-3.52093 3.33657,-6.401682 3.47468,-6.401682 0.38483,0 -0.28203,1.531197 -2.57512,5.91283 -1.15306,2.203278 -2.02187,4.229764 -1.93068,4.503307 0.44025,1.320767 2.70518,-1.669984 5.62245,-7.424261 1.77254,-3.496333 3.30143003,-6.12105 3.39755003,-5.83271 0.0962,0.288331 -0.81607,2.405564 -2.02706003,4.704961 -1.21101,2.299398 -2.20182,4.408961 -2.20182,4.687965 0,1.182691 2.6944,-0.817956 3.00479,-2.231127 0.18389,-0.836846 0.73211003,-1.844962 1.21841003,-2.240237 0.93029,-0.756105 0.93287,-0.782506 -0.19531,2.005448 -0.49283,1.217855 0.52903,0.987512 1.81265997,-0.408604 1.19377,-1.298399 6.14558,-10.869103 6.14558,-11.877969 0,-0.327035 0.36739,-0.962018 0.81641,-1.411042 0.94516,-0.94514 1.6567504,-3.352104 1.14294,-3.865907 -0.65313,-0.653113 -1.88014,1.198523 -5.252,7.925474 -1.84895,3.688662 -3.48152997,6.586824 -3.62798997,6.440386 -0.14644,-0.146437 1.39873997,-3.46383 3.43376997,-7.371932 2.03502,-3.908091 3.56459,-7.24108 3.39902,-7.406643 -0.82721,-0.827214 -2.17381,0.784487 -4.33717,5.191102 -1.3119,2.672245 -2.57223997,4.864589 -2.80073997,4.871894 -0.22853,0.0079 0.46145,-1.728021 1.53322997,-3.856305 1.07177,-2.128284 1.81759,-4.000712 1.65734,-4.160961 -0.609,-0.608997 -3.42528997,3.142789 -5.40449,7.199744 -1.13308,2.322565 -2.19141,4.091587 -2.35182,3.93117 -0.16037,-0.160368 0.75229,-2.271488 2.02824,-4.691248 1.27597003,-2.41976 2.15740003,-4.562102 1.95875003,-4.76075 -0.72536,-0.725366 -2.74793003,1.823608 -4.80329003,6.053461 -2.00818,4.132726 -3.19211,5.968589 -3.19211,4.949815 0,-0.258351 0.6592,-1.594537 1.46486,-2.96929 0.80566,-1.374772 1.41362,-2.563446 1.35101,-2.641486 -0.0627,-0.07808 0.27976,-0.903035 0.76082,-1.83328 0.56015,-1.083218 0.68616,-1.879851 0.35043,-2.215581 -0.62728,-0.627284 -1.99212,1.212828 -4.23942,5.7157 -0.86724,1.737663 -1.6556996,2.92265 -1.7521696,2.633294 -0.0963,-0.289356 0.5971696,-1.894954 1.5413796,-3.568004 1.25106,-2.216745 1.50388,-3.041927 0.93197,-3.041927 -1.05378,0 -2.5654296,1.736341 -2.8647396,3.290528 -0.13344,0.693276 -0.52973,1.523655 -0.8805,1.845307 -0.47444,0.435034 -0.54737,0.328957 -0.2848,-0.414144 0.19413,-0.549442 0.16884,-0.909335 -0.0561,-0.799758 -3.0105,1.466367 -3.5523,2.041796 -5.5649,5.910247 -2.07287,3.984317 -2.75488,6.512549 -1.75686,6.512549 0.62396,0 2.29795,-2.38628 4.70173,-6.702256 1.13514,-2.038168 2.16565,-3.603978 2.29004,-3.479603 0.12441,0.124413 -1.12373,2.609712 -2.77356,5.522957 -3.20803,5.664633 -3.65618,6.87192 -2.6784,7.215389 0.57136,0.200699 3.33913,-4.234801 5.79275,-9.283231 0.5602,-1.152671 1.14693,-1.967395 1.30384,-1.810487 0.15677,0.156976 -1.08614,2.841938 -2.7623,5.966785 -3.15143,5.87523 -3.6289,7.473852 -2.23223,7.473852 0.50089,0 1.9925,-2.430174 3.86805,-6.301986 z m -7.70892,-2.704413 c 0.56175,-1.043124 0.83854,-2.079002 0.61507,-2.301951 -0.57039,-0.56907 -3.03774,2.431412 -3.03774,3.694094 0,1.528012 1.23102,0.820618 2.42267,-1.392143 z M 6.2269906,80.636719 c 0.79,-0.789998 1.43636,-1.756206 1.43636,-2.147134 0,-0.390937 0.27144,-0.878546 0.60319,-1.083593 0.40591,-0.250868 0.483,0.0059 0.2357,0.785089 -0.20212,0.636827 -0.18635,1.157867 0.035,1.157867 0.62724,0 2.3951204,-1.739773 2.3951204,-2.35705 0,-0.304518 0.39748,-0.992905 0.88333,-1.529738 0.86216,-0.952702 0.7123,-2.651098 -0.23394,-2.651098 -0.26098,0 -0.76817,0.644615 -1.12715,1.432464 -0.35898,0.787859 -0.7793004,1.305842 -0.9340604,1.151103 -0.15472,-0.154718 0.19427,-1.063511 0.7756104,-2.019446 1.01493,-1.66891 1.03125,-3.833069 0.029,-3.833069 -0.3770004,0 -6.4754104,11.634238 -6.4754104,12.353511 0,0.58298 1.13825,-0.01972 2.37741,-1.258906 z M 13.111601,76.08 c 0,-0.299648 -0.24518,-0.544828 -0.54482,-0.544828 -0.29965,0 -0.54483,0.24518 -0.54483,0.544828 0,0.299648 0.24518,0.544828 0.54483,0.544828 0.29964,0 0.54482,-0.24518 0.54482,-0.544828 z"
         id="path1411" />
      <ellipse
         style="opacity:1;fill:#d72506;fill-opacity:1;stroke-width:1.13977"
         id="path917-3-1"
         cx="-78.319199"
         cy="263.42349"
         rx="10.928393"
         ry="10.916184" />
      <text
         xml:space="preserve"
         id="text1390-0"
         style="font-style:normal;font-weight:normal;font-size:10.5833px;line-height:1.25;font-family:sans-serif;white-space:pre;shape-inside:url(#rect1392-9);opacity:1;fill:#ffffff;fill-opacity:1;stroke:none;"
         transform="translate(-407.72596,97.597896)"><tspan
           x="324.62109"
           y="171.25306"><tspan
             style="font-style:normal;font-variant:normal;font-weight:normal;font-stretch:normal;font-size:16.9333px;font-family:Ubuntu;-inkscape-font-specification:'Ubuntu, Normal';font-variant-ligatures:normal;font-variant-caps:normal;font-variant-numeric:normal;font-variant-east-asian:normal;fill:#ffffff">2</tspan></tspan></text>
      <ellipse
         style="opacity:1;fill:#d72506;fill-opacity:1;stroke-width:1.13977"
         id="path917-3-5"
         cx="146.29814"
         cy="239.67523"
         rx="10.928393"
         ry="10.916184" />
      <text
         xml:space="preserve"
         id="text1390-8"
         style="font-style:normal;font-weight:normal;font-size:10.5833px;line-height:1.25;font-family:sans-serif;white-space:pre;shape-inside:url(#rect1392-7);opacity:1;fill:#ffffff;fill-opacity:1;stroke:none;"
         transform="translate(-183.10863,73.849629)"><tspan
           x="324.62109"
           y="171.25306"><tspan
             style="font-style:normal;font-variant:normal;font-weight:normal;font-stretch:normal;font-size:16.9333px;font-family:Ubuntu;-inkscape-font-specification:'Ubuntu, Normal';font-variant-ligatures:normal;font-variant-caps:normal;font-variant-numeric:normal;font-variant-east-asian:normal;fill:#ffffff">3</tspan></tspan></text>
      <ellipse
         style="opacity:1;fill:#d72506;fill-opacity:1;stroke-width:1.13977"
         id="path917-3-5-0"
         cx="96.76149"
         cy="147.02861"
         rx="10.928393"
         ry="10.916184" />
      <text
         xml:space="preserve"
         id="text1390-8-4"
         style="font-style:normal;font-weight:normal;font-size:10.5833px;line-height:1.25;font-family:sans-serif;white-space:pre;shape-inside:url(#rect1392-7-7);opacity:1;fill:#ffffff;fill-opacity:1;stroke:none;"
         transform="translate(-232.64528,-18.797001)"><tspan
           x="324.62109"
           y="171.25306"><tspan
             style="font-style:normal;font-variant:normal;font-weight:normal;font-stretch:normal;font-size:16.9333px;font-family:Ubuntu;-inkscape-font-specification:'Ubuntu, Normal';font-variant-ligatures:normal;font-variant-caps:normal;font-variant-numeric:normal;font-variant-east-asian:normal;fill:#ffffff">4</tspan></tspan></text>
    </g>
  </g>
</svg>
